<?xml version="1.0" encoding="UTF-8" standalone="no"?><svg xmlns="http://www.w3.org/2000/svg" xmlns:xlink="http://www.w3.org/1999/xlink" clip-rule="evenodd" stroke-miterlimit="10" viewBox="0 0 1024 768"><desc>SVG generated by Keynote</desc><defs></defs><g transform="matrix(1.00, 0.00, -0.00, -1.00, 0.0, 768.0)"><g><clipPath id="clip0x7ff82d9d1b00"><path d="M 0.0 768.0 L 1024.0 768.0 L 1024.0 0.0 L 0.0 0.0 Z M 0.0 768.0 "></path></clipPath><g clip-path="url(#clip0x7ff82d9d1b00)"><image xlink:href="../../5AFCDCF3-4DC9-448B-ACCC-D8922AE4CE0C/assets/B5EE15FD4291743AF7496326DC17A466.jpeg" width="2048.00" height="1536.00" transform="matrix(0.50, 0.00, -0.00, -0.50, 0.0, 768.0)"></image></g></g><g opacity="0.45"><g><clipPath id="clip0x7ff82d9cca90"><path d="M 30.0 48.0 L 994.0 48.0 L 994.0 741.0 L 30.0 741.0 Z M 30.0 48.0 "></path></clipPath><g clip-path="url(#clip0x7ff82d9cca90)"><image xlink:href="../../5AFCDCF3-4DC9-448B-ACCC-D8922AE4CE0C/assets/1E0376F862DA30D710D4F1E0694CAC10.png" width="1374.00" height="986.00" transform="matrix(0.70, 0.00, -0.00, -0.70, 31.0, 740.0)"></image></g></g></g><image xlink:href="../../D8234D49-A756-4611-B3CE-DFE5A1F22F71/assets/E88C059AD4C2473B654D23647B73314F.png" width="281.00" height="41.00" transform="matrix(1.00, 0.00, -0.00, -1.00, 73.0, 701.0)"></image><text xml:space="preserve" font-family="AvenirNext-Bold,Avenir Next" font-weight="bold" font-size="48.0" fill="#3D3B38" transform="matrix(1.00, 0.00, -0.00, -1.00, 75.0, 665.6)">S</text><text xml:space="preserve" font-family="AvenirNext-Bold,Avenir Next" font-weight="bold" font-size="48.0" fill="#3D3B38" transform="matrix(1.00, 0.00, -0.00, -1.00, 106.6, 665.6)">T</text><text xml:space="preserve" font-family="AvenirNext-Bold,Avenir Next" font-weight="bold" font-size="48.0" fill="#3D3B38" transform="matrix(1.00, 0.00, -0.00, -1.00, 138.3, 665.6)">U</text><text xml:space="preserve" font-family="AvenirNext-Bold,Avenir Next" font-weight="bold" font-size="48.0" fill="#3D3B38" transform="matrix(1.00, 0.00, -0.00, -1.00, 177.6, 665.6)">D</text><text xml:space="preserve" font-family="AvenirNext-Bold,Avenir Next" font-weight="bold" font-size="48.0" fill="#3D3B38" transform="matrix(1.00, 0.00, -0.00, -1.00, 218.6, 665.6)">E</text><text xml:space="preserve" font-family="AvenirNext-Bold,Avenir Next" font-weight="bold" font-size="48.0" fill="#3D3B38" transform="matrix(1.00, 0.00, -0.00, -1.00, 251.5, 665.6)">N</text><text xml:space="preserve" font-family="AvenirNext-Bold,Avenir Next" font-weight="bold" font-size="48.0" fill="#3D3B38" transform="matrix(1.00, 0.00, -0.00, -1.00, 293.3, 665.6)">T</text><text xml:space="preserve" font-family="AvenirNext-Bold,Avenir Next" font-weight="bold" font-size="48.0" fill="#3D3B38" transform="matrix(1.00, 0.00, -0.00, -1.00, 325.0, 665.6)">S</text><image xlink:href="../../CFA77806-E5C3-4835-81C7-5BE4A1301879/assets/D99124718394D0204741595278D219B6.png" width="15.00" height="14.00" transform="matrix(1.00, 0.00, -0.00, -1.00, 74.0, 539.0)"></image><text xml:space="preserve" font-family="AvenirNext-Medium,Avenir Next" font-size="26.5" fill="#5D514B" transform="matrix(1.00, 0.00, -0.00, -1.00, 75.0, 524.7)">•</text><image xlink:href="../../D8234D49-A756-4611-B3CE-DFE5A1F22F71/assets/E039947B570997062776DA3E174AEE95.png" width="800.00" height="33.00" transform="matrix(1.00, 0.00, -0.00, -1.00, 110.0, 552.0)"></image><text xml:space="preserve" font-family="AvenirNext-Medium,Avenir Next" font-size="35.3" fill="#5D514B" transform="matrix(1.00, 0.00, -0.00, -1.00, 109.3, 523.9)">B</text><text xml:space="preserve" font-family="AvenirNext-Medium,Avenir Next" font-size="35.3" fill="#5D514B" transform="matrix(1.00, 0.00, -0.00, -1.00, 131.9, 523.9)">o</text><text xml:space="preserve" font-family="AvenirNext-Medium,Avenir Next" font-size="35.3" fill="#5D514B" transform="matrix(1.00, 0.00, -0.00, -1.00, 153.5, 523.9)">t</text><text xml:space="preserve" font-family="AvenirNext-Medium,Avenir Next" font-size="35.3" fill="#5D514B" transform="matrix(1.00, 0.00, -0.00, -1.00, 165.1, 523.9)">h</text><text xml:space="preserve" font-family="AvenirNext-Medium,Avenir Next" font-size="35.3" fill="#5D514B" transform="matrix(1.00, 0.00, -0.00, -1.00, 185.7, 523.9)"> </text><text xml:space="preserve" font-family="AvenirNext-Medium,Avenir Next" font-size="35.3" fill="#5D514B" transform="matrix(1.00, 0.00, -0.00, -1.00, 194.5, 523.9)">c</text><text xml:space="preserve" font-family="AvenirNext-Medium,Avenir Next" font-size="35.3" fill="#5D514B" transform="matrix(1.00, 0.00, -0.00, -1.00, 211.9, 523.9)">l</text><text xml:space="preserve" font-family="AvenirNext-Medium,Avenir Next" font-size="35.3" fill="#5D514B" transform="matrix(1.00, 0.00, -0.00, -1.00, 221.1, 523.9)">a</text><text xml:space="preserve" font-family="AvenirNext-Medium,Avenir Next" font-size="35.3" fill="#5D514B" transform="matrix(1.00, 0.00, -0.00, -1.00, 240.2, 523.9)">s</text><text xml:space="preserve" font-family="AvenirNext-Medium,Avenir Next" font-size="35.3" fill="#5D514B" transform="matrix(1.00, 0.00, -0.00, -1.00, 255.9, 523.9)">s</text><text xml:space="preserve" font-family="AvenirNext-Medium,Avenir Next" font-size="35.3" fill="#5D514B" transform="matrix(1.00, 0.00, -0.00, -1.00, 271.6, 523.9)">e</text><text xml:space="preserve" font-family="AvenirNext-Medium,Avenir Next" font-size="35.3" fill="#5D514B" transform="matrix(1.00, 0.00, -0.00, -1.00, 291.8, 523.9)">s</text><text xml:space="preserve" font-family="AvenirNext-Medium,Avenir Next" font-size="35.3" fill="#5D514B" transform="matrix(1.00, 0.00, -0.00, -1.00, 307.4, 523.9)"> </text><text xml:space="preserve" font-family="AvenirNext-Medium,Avenir Next" font-size="35.3" fill="#5D514B" transform="matrix(1.00, 0.00, -0.00, -1.00, 316.3, 523.9)">c</text><text xml:space="preserve" font-family="AvenirNext-Medium,Avenir Next" font-size="35.3" fill="#5D514B" transform="matrix(1.00, 0.00, -0.00, -1.00, 333.7, 523.9)">o</text><text xml:space="preserve" font-family="AvenirNext-Medium,Avenir Next" font-size="35.3" fill="#5D514B" transform="matrix(1.00, 0.00, -0.00, -1.00, 355.2, 523.9)">n</text><text xml:space="preserve" font-family="AvenirNext-Medium,Avenir Next" font-size="35.3" fill="#5D514B" transform="matrix(1.00, 0.00, -0.00, -1.00, 375.7, 523.9)">t</text><text xml:space="preserve" font-family="AvenirNext-Medium,Avenir Next" font-size="35.3" fill="#5D514B" transform="matrix(1.00, 0.00, -0.00, -1.00, 387.3, 523.9)">a</text><text xml:space="preserve" font-family="AvenirNext-Medium,Avenir Next" font-size="35.3" fill="#5D514B" transform="matrix(1.00, 0.00, -0.00, -1.00, 406.5, 523.9)">i</text><text xml:space="preserve" font-family="AvenirNext-Medium,Avenir Next" font-size="35.3" fill="#5D514B" transform="matrix(1.00, 0.00, -0.00, -1.00, 415.6, 523.9)">n</text><text xml:space="preserve" font-family="AvenirNext-Medium,Avenir Next" font-size="35.3" fill="#5D514B" transform="matrix(1.00, 0.00, -0.00, -1.00, 436.1, 523.9)">e</text><text xml:space="preserve" font-family="AvenirNext-Medium,Avenir Next" font-size="35.3" fill="#5D514B" transform="matrix(1.00, 0.00, -0.00, -1.00, 456.3, 523.9)">d</text><text xml:space="preserve" font-family="AvenirNext-Medium,Avenir Next" font-size="35.3" fill="#5D514B" transform="matrix(1.00, 0.00, -0.00, -1.00, 478.8, 523.9)"> </text><text xml:space="preserve" font-family="AvenirNext-Medium,Avenir Next" font-size="35.3" fill="#5D514B" transform="matrix(1.00, 0.00, -0.00, -1.00, 487.6, 523.9)">a</text><text xml:space="preserve" font-family="AvenirNext-Medium,Avenir Next" font-size="35.3" fill="#5D514B" transform="matrix(1.00, 0.00, -0.00, -1.00, 506.7, 523.9)"> </text><text xml:space="preserve" font-family="AvenirNext-Medium,Avenir Next" font-size="35.3" fill="#5D514B" transform="matrix(1.00, 0.00, -0.00, -1.00, 515.5, 523.9)">n</text><text xml:space="preserve" font-family="AvenirNext-Medium,Avenir Next" font-size="35.3" fill="#5D514B" transform="matrix(1.00, 0.00, -0.00, -1.00, 536.0, 523.9)">u</text><text xml:space="preserve" font-family="AvenirNext-Medium,Avenir Next" font-size="35.3" fill="#5D514B" transform="matrix(1.00, 0.00, -0.00, -1.00, 556.6, 523.9)">m</text><text xml:space="preserve" font-family="AvenirNext-Medium,Avenir Next" font-size="35.3" fill="#5D514B" transform="matrix(1.00, 0.00, -0.00, -1.00, 587.9, 523.9)">b</text><text xml:space="preserve" font-family="AvenirNext-Medium,Avenir Next" font-size="35.3" fill="#5D514B" transform="matrix(1.00, 0.00, -0.00, -1.00, 610.3, 523.9)">e</text><text xml:space="preserve" font-family="AvenirNext-Medium,Avenir Next" font-size="35.3" fill="#5D514B" transform="matrix(1.00, 0.00, -0.00, -1.00, 630.5, 523.9)">r</text><text xml:space="preserve" font-family="AvenirNext-Medium,Avenir Next" font-size="35.3" fill="#5D514B" transform="matrix(1.00, 0.00, -0.00, -1.00, 643.3, 523.9)"> </text><text xml:space="preserve" font-family="AvenirNext-Medium,Avenir Next" font-size="35.3" fill="#5D514B" transform="matrix(1.00, 0.00, -0.00, -1.00, 652.1, 523.9)">o</text><text xml:space="preserve" font-family="AvenirNext-Medium,Avenir Next" font-size="35.3" fill="#5D514B" transform="matrix(1.00, 0.00, -0.00, -1.00, 673.6, 523.9)">f</text><text xml:space="preserve" font-family="AvenirNext-Medium,Avenir Next" font-size="35.3" fill="#5D514B" transform="matrix(1.00, 0.00, -0.00, -1.00, 685.4, 523.9)"> </text><text xml:space="preserve" font-family="AvenirNext-Medium,Avenir Next" font-size="35.3" fill="#5D514B" transform="matrix(1.00, 0.00, -0.00, -1.00, 694.2, 523.9)">s</text><text xml:space="preserve" font-family="AvenirNext-Medium,Avenir Next" font-size="35.3" fill="#5D514B" transform="matrix(1.00, 0.00, -0.00, -1.00, 709.9, 523.9)">t</text><text xml:space="preserve" font-family="AvenirNext-Medium,Avenir Next" font-size="35.3" fill="#5D514B" transform="matrix(1.00, 0.00, -0.00, -1.00, 721.5, 523.9)">u</text><text xml:space="preserve" font-family="AvenirNext-Medium,Avenir Next" font-size="35.3" fill="#5D514B" transform="matrix(1.00, 0.00, -0.00, -1.00, 742.0, 523.9)">d</text><text xml:space="preserve" font-family="AvenirNext-Medium,Avenir Next" font-size="35.3" fill="#5D514B" transform="matrix(1.00, 0.00, -0.00, -1.00, 764.4, 523.9)">e</text><text xml:space="preserve" font-family="AvenirNext-Medium,Avenir Next" font-size="35.3" fill="#5D514B" transform="matrix(1.00, 0.00, -0.00, -1.00, 784.7, 523.9)">n</text><text xml:space="preserve" font-family="AvenirNext-Medium,Avenir Next" font-size="35.3" fill="#5D514B" transform="matrix(1.00, 0.00, -0.00, -1.00, 805.2, 523.9)">t</text><text xml:space="preserve" font-family="AvenirNext-Medium,Avenir Next" font-size="35.3" fill="#5D514B" transform="matrix(1.00, 0.00, -0.00, -1.00, 816.8, 523.9)">s</text><text xml:space="preserve" font-family="AvenirNext-Medium,Avenir Next" font-size="35.3" fill="#5D514B" transform="matrix(1.00, 0.00, -0.00, -1.00, 832.5, 523.9)"> </text><text xml:space="preserve" font-family="AvenirNext-Medium,Avenir Next" font-size="35.3" fill="#5D514B" transform="matrix(1.00, 0.00, -0.00, -1.00, 841.3, 523.9)">w</text><text xml:space="preserve" font-family="AvenirNext-Medium,Avenir Next" font-size="35.3" fill="#5D514B" transform="matrix(1.00, 0.00, -0.00, -1.00, 868.6, 523.9)">i</text><text xml:space="preserve" font-family="AvenirNext-Medium,Avenir Next" font-size="35.3" fill="#5D514B" transform="matrix(1.00, 0.00, -0.00, -1.00, 877.7, 523.9)">t</text><text xml:space="preserve" font-family="AvenirNext-Medium,Avenir Next" font-size="35.3" fill="#5D514B" transform="matrix(1.00, 0.00, -0.00, -1.00, 889.3, 523.9)">h</text><text xml:space="preserve" font-family="AvenirNext-Medium,Avenir Next" font-size="35.3" fill="#5D514B" transform="matrix(1.00, 0.00, -0.00, -1.00, 909.9, 523.9)"> </text><image xlink:href="../../D8234D49-A756-4611-B3CE-DFE5A1F22F71/assets/9ACB94C90BB3471C97432629493873DD.png" width="646.00" height="40.00" transform="matrix(1.00, 0.00, -0.00, -1.00, 110.0, 503.0)"></image><text xml:space="preserve" font-family="AvenirNext-Medium,Avenir Next" font-size="35.3" fill="#5D514B" transform="matrix(1.00, 0.00, -0.00, -1.00, 109.3, 475.9)">I</text><text xml:space="preserve" font-family="AvenirNext-Medium,Avenir Next" font-size="35.3" fill="#5D514B" transform="matrix(1.00, 0.00, -0.00, -1.00, 118.9, 475.9)">n</text><text xml:space="preserve" font-family="AvenirNext-Medium,Avenir Next" font-size="35.3" fill="#5D514B" transform="matrix(1.00, 0.00, -0.00, -1.00, 139.4, 475.9)">d</text><text xml:space="preserve" font-family="AvenirNext-Medium,Avenir Next" font-size="35.3" fill="#5D514B" transform="matrix(1.00, 0.00, -0.00, -1.00, 161.8, 475.9)">i</text><text xml:space="preserve" font-family="AvenirNext-Medium,Avenir Next" font-size="35.3" fill="#5D514B" transform="matrix(1.00, 0.00, -0.00, -1.00, 170.9, 475.9)">v</text><text xml:space="preserve" font-family="AvenirNext-Medium,Avenir Next" font-size="35.3" fill="#5D514B" transform="matrix(1.00, 0.00, -0.00, -1.00, 188.7, 475.9)">i</text><text xml:space="preserve" font-family="AvenirNext-Medium,Avenir Next" font-size="35.3" fill="#5D514B" transform="matrix(1.00, 0.00, -0.00, -1.00, 197.9, 475.9)">d</text><text xml:space="preserve" font-family="AvenirNext-Medium,Avenir Next" font-size="35.3" fill="#5D514B" transform="matrix(1.00, 0.00, -0.00, -1.00, 220.3, 475.9)">u</text><text xml:space="preserve" font-family="AvenirNext-Medium,Avenir Next" font-size="35.3" fill="#5D514B" transform="matrix(1.00, 0.00, -0.00, -1.00, 240.8, 475.9)">a</text><text xml:space="preserve" font-family="AvenirNext-Medium,Avenir Next" font-size="35.3" fill="#5D514B" transform="matrix(1.00, 0.00, -0.00, -1.00, 259.9, 475.9)">l</text><text xml:space="preserve" font-family="AvenirNext-Medium,Avenir Next" font-size="35.3" fill="#5D514B" transform="matrix(1.00, 0.00, -0.00, -1.00, 269.1, 475.9)">i</text><text xml:space="preserve" font-family="AvenirNext-Medium,Avenir Next" font-size="35.3" fill="#5D514B" transform="matrix(1.00, 0.00, -0.00, -1.00, 278.2, 475.9)">z</text><text xml:space="preserve" font-family="AvenirNext-Medium,Avenir Next" font-size="35.3" fill="#5D514B" transform="matrix(1.00, 0.00, -0.00, -1.00, 294.5, 475.9)">e</text><text xml:space="preserve" font-family="AvenirNext-Medium,Avenir Next" font-size="35.3" fill="#5D514B" transform="matrix(1.00, 0.00, -0.00, -1.00, 314.7, 475.9)">d</text><text xml:space="preserve" font-family="AvenirNext-Medium,Avenir Next" font-size="35.3" fill="#5D514B" transform="matrix(1.00, 0.00, -0.00, -1.00, 337.1, 475.9)"> </text><text xml:space="preserve" font-family="AvenirNext-Medium,Avenir Next" font-size="35.3" fill="#5D514B" transform="matrix(1.00, 0.00, -0.00, -1.00, 346.0, 475.9)">E</text><text xml:space="preserve" font-family="AvenirNext-Medium,Avenir Next" font-size="35.3" fill="#5D514B" transform="matrix(1.00, 0.00, -0.00, -1.00, 367.2, 475.9)">d</text><text xml:space="preserve" font-family="AvenirNext-Medium,Avenir Next" font-size="35.3" fill="#5D514B" transform="matrix(1.00, 0.00, -0.00, -1.00, 389.6, 475.9)">u</text><text xml:space="preserve" font-family="AvenirNext-Medium,Avenir Next" font-size="35.3" fill="#5D514B" transform="matrix(1.00, 0.00, -0.00, -1.00, 410.1, 475.9)">c</text><text xml:space="preserve" font-family="AvenirNext-Medium,Avenir Next" font-size="35.3" fill="#5D514B" transform="matrix(1.00, 0.00, -0.00, -1.00, 427.5, 475.9)">a</text><text xml:space="preserve" font-family="AvenirNext-Medium,Avenir Next" font-size="35.3" fill="#5D514B" transform="matrix(1.00, 0.00, -0.00, -1.00, 446.3, 475.9)">t</text><text xml:space="preserve" font-family="AvenirNext-Medium,Avenir Next" font-size="35.3" fill="#5D514B" transform="matrix(1.00, 0.00, -0.00, -1.00, 457.9, 475.9)">i</text><text xml:space="preserve" font-family="AvenirNext-Medium,Avenir Next" font-size="35.3" fill="#5D514B" transform="matrix(1.00, 0.00, -0.00, -1.00, 467.0, 475.9)">o</text><text xml:space="preserve" font-family="AvenirNext-Medium,Avenir Next" font-size="35.3" fill="#5D514B" transform="matrix(1.00, 0.00, -0.00, -1.00, 488.6, 475.9)">n</text><text xml:space="preserve" font-family="AvenirNext-Medium,Avenir Next" font-size="35.3" fill="#5D514B" transform="matrix(1.00, 0.00, -0.00, -1.00, 509.1, 475.9)"> </text><text xml:space="preserve" font-family="AvenirNext-Medium,Avenir Next" font-size="35.3" fill="#5D514B" transform="matrix(1.00, 0.00, -0.00, -1.00, 517.9, 475.9)">P</text><text xml:space="preserve" font-family="AvenirNext-Medium,Avenir Next" font-size="35.3" fill="#5D514B" transform="matrix(1.00, 0.00, -0.00, -1.00, 537.3, 475.9)">r</text><text xml:space="preserve" font-family="AvenirNext-Medium,Avenir Next" font-size="35.3" fill="#5D514B" transform="matrix(1.00, 0.00, -0.00, -1.00, 549.4, 475.9)">o</text><text xml:space="preserve" font-family="AvenirNext-Medium,Avenir Next" font-size="35.3" fill="#5D514B" transform="matrix(1.00, 0.00, -0.00, -1.00, 570.9, 475.9)">g</text><text xml:space="preserve" font-family="AvenirNext-Medium,Avenir Next" font-size="35.3" fill="#5D514B" transform="matrix(1.00, 0.00, -0.00, -1.00, 593.2, 475.9)">r</text><text xml:space="preserve" font-family="AvenirNext-Medium,Avenir Next" font-size="35.3" fill="#5D514B" transform="matrix(1.00, 0.00, -0.00, -1.00, 605.5, 475.9)">a</text><text xml:space="preserve" font-family="AvenirNext-Medium,Avenir Next" font-size="35.3" fill="#5D514B" transform="matrix(1.00, 0.00, -0.00, -1.00, 624.7, 475.9)">m</text><text xml:space="preserve" font-family="AvenirNext-Medium,Avenir Next" font-size="35.3" fill="#5D514B" transform="matrix(1.00, 0.00, -0.00, -1.00, 656.0, 475.9)">s</text><text xml:space="preserve" font-family="AvenirNext-Medium,Avenir Next" font-size="35.3" fill="#5D514B" transform="matrix(1.00, 0.00, -0.00, -1.00, 671.6, 475.9)"> </text><text xml:space="preserve" font-family="AvenirNext-Medium,Avenir Next" font-size="35.3" fill="#5D514B" transform="matrix(1.00, 0.00, -0.00, -1.00, 680.4, 475.9)">(</text><text xml:space="preserve" font-family="AvenirNext-Medium,Avenir Next" font-size="35.3" fill="#5D514B" transform="matrix(1.00, 0.00, -0.00, -1.00, 691.6, 475.9)">I</text><text xml:space="preserve" font-family="AvenirNext-Medium,Avenir Next" font-size="35.3" fill="#5D514B" transform="matrix(1.00, 0.00, -0.00, -1.00, 701.1, 475.9)">E</text><text xml:space="preserve" font-family="AvenirNext-Medium,Avenir Next" font-size="35.3" fill="#5D514B" transform="matrix(1.00, 0.00, -0.00, -1.00, 722.3, 475.9)">P</text><text xml:space="preserve" font-family="AvenirNext-Medium,Avenir Next" font-size="35.3" fill="#5D514B" transform="matrix(1.00, 0.00, -0.00, -1.00, 743.3, 475.9)">)</text><text xml:space="preserve" font-family="AvenirNext-Medium,Avenir Next" font-size="35.3" fill="#5D514B" transform="matrix(1.00, 0.00, -0.00, -1.00, 754.4, 475.9)"> </text><image xlink:href="../../CFA77806-E5C3-4835-81C7-5BE4A1301879/assets/E400BE4B816D90486CD58365C8C6E368.png" width="15.00" height="14.00" transform="matrix(1.00, 0.00, -0.00, -1.00, 109.0, 412.0)"></image><text xml:space="preserve" font-family="AvenirNext-Medium,Avenir Next" font-size="26.5" fill="#5D514B" transform="matrix(1.00, 0.00, -0.00, -1.00, 110.0, 397.3)">•</text><image xlink:href="../../D8234D49-A756-4611-B3CE-DFE5A1F22F71/assets/9A1E27AB9DD9EF36B4A5180C35638F5B.png" width="514.00" height="40.00" transform="matrix(1.00, 0.00, -0.00, -1.00, 145.0, 424.0)"></image><text xml:space="preserve" font-family="AvenirNext-Medium,Avenir Next" font-size="35.3" fill="#5D514B" transform="matrix(1.00, 0.00, -0.00, -1.00, 144.3, 396.6)">D</text><text xml:space="preserve" font-family="AvenirNext-Medium,Avenir Next" font-size="35.3" fill="#5D514B" transform="matrix(1.00, 0.00, -0.00, -1.00, 171.1, 396.6)">i</text><text xml:space="preserve" font-family="AvenirNext-Medium,Avenir Next" font-size="35.3" fill="#5D514B" transform="matrix(1.00, 0.00, -0.00, -1.00, 180.3, 396.6)">a</text><text xml:space="preserve" font-family="AvenirNext-Medium,Avenir Next" font-size="35.3" fill="#5D514B" transform="matrix(1.00, 0.00, -0.00, -1.00, 199.4, 396.6)">g</text><text xml:space="preserve" font-family="AvenirNext-Medium,Avenir Next" font-size="35.3" fill="#5D514B" transform="matrix(1.00, 0.00, -0.00, -1.00, 221.7, 396.6)">n</text><text xml:space="preserve" font-family="AvenirNext-Medium,Avenir Next" font-size="35.3" fill="#5D514B" transform="matrix(1.00, 0.00, -0.00, -1.00, 242.2, 396.6)">o</text><text xml:space="preserve" font-family="AvenirNext-Medium,Avenir Next" font-size="35.3" fill="#5D514B" transform="matrix(1.00, 0.00, -0.00, -1.00, 263.8, 396.6)">s</text><text xml:space="preserve" font-family="AvenirNext-Medium,Avenir Next" font-size="35.3" fill="#5D514B" transform="matrix(1.00, 0.00, -0.00, -1.00, 279.4, 396.6)">e</text><text xml:space="preserve" font-family="AvenirNext-Medium,Avenir Next" font-size="35.3" fill="#5D514B" transform="matrix(1.00, 0.00, -0.00, -1.00, 299.6, 396.6)">d</text><text xml:space="preserve" font-family="AvenirNext-Medium,Avenir Next" font-size="35.3" fill="#5D514B" transform="matrix(1.00, 0.00, -0.00, -1.00, 322.0, 396.6)"> </text><text xml:space="preserve" font-family="AvenirNext-Medium,Avenir Next" font-size="35.3" fill="#5D514B" transform="matrix(1.00, 0.00, -0.00, -1.00, 330.9, 396.6)">o</text><text xml:space="preserve" font-family="AvenirNext-Medium,Avenir Next" font-size="35.3" fill="#5D514B" transform="matrix(1.00, 0.00, -0.00, -1.00, 352.4, 396.6)">n</text><text xml:space="preserve" font-family="AvenirNext-Medium,Avenir Next" font-size="35.3" fill="#5D514B" transform="matrix(1.00, 0.00, -0.00, -1.00, 372.9, 396.6)"> </text><text xml:space="preserve" font-family="AvenirNext-Medium,Avenir Next" font-size="35.3" fill="#5D514B" transform="matrix(1.00, 0.00, -0.00, -1.00, 381.1, 396.6)">A</text><text xml:space="preserve" font-family="AvenirNext-Medium,Avenir Next" font-size="35.3" fill="#5D514B" transform="matrix(1.00, 0.00, -0.00, -1.00, 406.2, 396.6)">u</text><text xml:space="preserve" font-family="AvenirNext-Medium,Avenir Next" font-size="35.3" fill="#5D514B" transform="matrix(1.00, 0.00, -0.00, -1.00, 426.7, 396.6)">t</text><text xml:space="preserve" font-family="AvenirNext-Medium,Avenir Next" font-size="35.3" fill="#5D514B" transform="matrix(1.00, 0.00, -0.00, -1.00, 438.3, 396.6)">i</text><text xml:space="preserve" font-family="AvenirNext-Medium,Avenir Next" font-size="35.3" fill="#5D514B" transform="matrix(1.00, 0.00, -0.00, -1.00, 447.5, 396.6)">s</text><text xml:space="preserve" font-family="AvenirNext-Medium,Avenir Next" font-size="35.3" fill="#5D514B" transform="matrix(1.00, 0.00, -0.00, -1.00, 463.1, 396.6)">m</text><text xml:space="preserve" font-family="AvenirNext-Medium,Avenir Next" font-size="35.3" fill="#5D514B" transform="matrix(1.00, 0.00, -0.00, -1.00, 494.4, 396.6)"> </text><text xml:space="preserve" font-family="AvenirNext-Medium,Avenir Next" font-size="35.3" fill="#5D514B" transform="matrix(1.00, 0.00, -0.00, -1.00, 503.2, 396.6)">S</text><text xml:space="preserve" font-family="AvenirNext-Medium,Avenir Next" font-size="35.3" fill="#5D514B" transform="matrix(1.00, 0.00, -0.00, -1.00, 523.3, 396.6)">p</text><text xml:space="preserve" font-family="AvenirNext-Medium,Avenir Next" font-size="35.3" fill="#5D514B" transform="matrix(1.00, 0.00, -0.00, -1.00, 545.7, 396.6)">e</text><text xml:space="preserve" font-family="AvenirNext-Medium,Avenir Next" font-size="35.3" fill="#5D514B" transform="matrix(1.00, 0.00, -0.00, -1.00, 565.9, 396.6)">c</text><text xml:space="preserve" font-family="AvenirNext-Medium,Avenir Next" font-size="35.3" fill="#5D514B" transform="matrix(1.00, 0.00, -0.00, -1.00, 583.3, 396.6)">t</text><text xml:space="preserve" font-family="AvenirNext-Medium,Avenir Next" font-size="35.3" fill="#5D514B" transform="matrix(1.00, 0.00, -0.00, -1.00, 594.9, 396.6)">r</text><text xml:space="preserve" font-family="AvenirNext-Medium,Avenir Next" font-size="35.3" fill="#5D514B" transform="matrix(1.00, 0.00, -0.00, -1.00, 607.7, 396.6)">u</text><text xml:space="preserve" font-family="AvenirNext-Medium,Avenir Next" font-size="35.3" fill="#5D514B" transform="matrix(1.00, 0.00, -0.00, -1.00, 628.2, 396.6)">m</text><text xml:space="preserve" font-family="AvenirNext-Medium,Avenir Next" font-size="35.3" fill="#5D514B" transform="matrix(1.00, 0.00, -0.00, -1.00, 659.5, 396.6)"> </text><image xlink:href="../../CFA77806-E5C3-4835-81C7-5BE4A1301879/assets/435741AD8830718622CF1E7FB9305D7D.png" width="15.00" height="15.00" transform="matrix(1.00, 0.00, -0.00, -1.00, 109.0, 333.0)"></image><text xml:space="preserve" font-family="AvenirNext-Medium,Avenir Next" font-size="26.5" fill="#5D514B" transform="matrix(1.00, 0.00, -0.00, -1.00, 110.0, 318.0)">•</text><image xlink:href="../../D8234D49-A756-4611-B3CE-DFE5A1F22F71/assets/4EB6A89EA3D42765F33DA93F7D5188BF.png" width="316.00" height="40.00" transform="matrix(1.00, 0.00, -0.00, -1.00, 145.0, 344.0)"></image><text xml:space="preserve" font-family="AvenirNext-Medium,Avenir Next" font-size="35.3" fill="#5D514B" transform="matrix(1.00, 0.00, -0.00, -1.00, 144.3, 317.2)">P</text><text xml:space="preserve" font-family="AvenirNext-Medium,Avenir Next" font-size="35.3" fill="#5D514B" transform="matrix(1.00, 0.00, -0.00, -1.00, 165.3, 317.2)">h</text><text xml:space="preserve" font-family="AvenirNext-Medium,Avenir Next" font-size="35.3" fill="#5D514B" transform="matrix(1.00, 0.00, -0.00, -1.00, 185.9, 317.2)">y</text><text xml:space="preserve" font-family="AvenirNext-Medium,Avenir Next" font-size="35.3" fill="#5D514B" transform="matrix(1.00, 0.00, -0.00, -1.00, 203.7, 317.2)">s</text><text xml:space="preserve" font-family="AvenirNext-Medium,Avenir Next" font-size="35.3" fill="#5D514B" transform="matrix(1.00, 0.00, -0.00, -1.00, 219.3, 317.2)">i</text><text xml:space="preserve" font-family="AvenirNext-Medium,Avenir Next" font-size="35.3" fill="#5D514B" transform="matrix(1.00, 0.00, -0.00, -1.00, 228.5, 317.2)">c</text><text xml:space="preserve" font-family="AvenirNext-Medium,Avenir Next" font-size="35.3" fill="#5D514B" transform="matrix(1.00, 0.00, -0.00, -1.00, 245.9, 317.2)">a</text><text xml:space="preserve" font-family="AvenirNext-Medium,Avenir Next" font-size="35.3" fill="#5D514B" transform="matrix(1.00, 0.00, -0.00, -1.00, 265.0, 317.2)">l</text><text xml:space="preserve" font-family="AvenirNext-Medium,Avenir Next" font-size="35.3" fill="#5D514B" transform="matrix(1.00, 0.00, -0.00, -1.00, 274.2, 317.2)"> </text><text xml:space="preserve" font-family="AvenirNext-Medium,Avenir Next" font-size="35.3" fill="#5D514B" transform="matrix(1.00, 0.00, -0.00, -1.00, 283.0, 317.2)">D</text><text xml:space="preserve" font-family="AvenirNext-Medium,Avenir Next" font-size="35.3" fill="#5D514B" transform="matrix(1.00, 0.00, -0.00, -1.00, 309.9, 317.2)">i</text><text xml:space="preserve" font-family="AvenirNext-Medium,Avenir Next" font-size="35.3" fill="#5D514B" transform="matrix(1.00, 0.00, -0.00, -1.00, 319.0, 317.2)">s</text><text xml:space="preserve" font-family="AvenirNext-Medium,Avenir Next" font-size="35.3" fill="#5D514B" transform="matrix(1.00, 0.00, -0.00, -1.00, 334.7, 317.2)">a</text><text xml:space="preserve" font-family="AvenirNext-Medium,Avenir Next" font-size="35.3" fill="#5D514B" transform="matrix(1.00, 0.00, -0.00, -1.00, 353.8, 317.2)">b</text><text xml:space="preserve" font-family="AvenirNext-Medium,Avenir Next" font-size="35.3" fill="#5D514B" transform="matrix(1.00, 0.00, -0.00, -1.00, 376.2, 317.2)">i</text><text xml:space="preserve" font-family="AvenirNext-Medium,Avenir Next" font-size="35.3" fill="#5D514B" transform="matrix(1.00, 0.00, -0.00, -1.00, 385.4, 317.2)">l</text><text xml:space="preserve" font-family="AvenirNext-Medium,Avenir Next" font-size="35.3" fill="#5D514B" transform="matrix(1.00, 0.00, -0.00, -1.00, 394.5, 317.2)">i</text><text xml:space="preserve" font-family="AvenirNext-Medium,Avenir Next" font-size="35.3" fill="#5D514B" transform="matrix(1.00, 0.00, -0.00, -1.00, 403.7, 317.2)">t</text><text xml:space="preserve" font-family="AvenirNext-Medium,Avenir Next" font-size="35.3" fill="#5D514B" transform="matrix(1.00, 0.00, -0.00, -1.00, 415.3, 317.2)">i</text><text xml:space="preserve" font-family="AvenirNext-Medium,Avenir Next" font-size="35.3" fill="#5D514B" transform="matrix(1.00, 0.00, -0.00, -1.00, 424.4, 317.2)">e</text><text xml:space="preserve" font-family="AvenirNext-Medium,Avenir Next" font-size="35.3" fill="#5D514B" transform="matrix(1.00, 0.00, -0.00, -1.00, 444.6, 317.2)">s</text><text xml:space="preserve" font-family="AvenirNext-Medium,Avenir Next" font-size="35.3" fill="#5D514B" transform="matrix(1.00, 0.00, -0.00, -1.00, 460.3, 317.2)"> </text><image xlink:href="../../CFA77806-E5C3-4835-81C7-5BE4A1301879/assets/2E7AE001967F09B51143DAE37DCE7A58.png" width="15.00" height="14.00" transform="matrix(1.00, 0.00, -0.00, -1.00, 109.0, 253.0)"></image><text xml:space="preserve" font-family="AvenirNext-Medium,Avenir Next" font-size="26.5" fill="#5D514B" transform="matrix(1.00, 0.00, -0.00, -1.00, 110.0, 238.6)">•</text><image xlink:href="../../D8234D49-A756-4611-B3CE-DFE5A1F22F71/assets/3DA9B918920AAE8685E7B0C52A2C6278.png" width="331.00" height="32.00" transform="matrix(1.00, 0.00, -0.00, -1.00, 145.0, 265.0)"></image><text xml:space="preserve" font-family="AvenirNext-Medium,Avenir Next" font-size="35.3" fill="#5D514B" transform="matrix(1.00, 0.00, -0.00, -1.00, 144.3, 237.8)">E</text><text xml:space="preserve" font-family="AvenirNext-Medium,Avenir Next" font-size="35.3" fill="#5D514B" transform="matrix(1.00, 0.00, -0.00, -1.00, 165.5, 237.8)">m</text><text xml:space="preserve" font-family="AvenirNext-Medium,Avenir Next" font-size="35.3" fill="#5D514B" transform="matrix(1.00, 0.00, -0.00, -1.00, 196.8, 237.8)">o</text><text xml:space="preserve" font-family="AvenirNext-Medium,Avenir Next" font-size="35.3" fill="#5D514B" transform="matrix(1.00, 0.00, -0.00, -1.00, 218.3, 237.8)">t</text><text xml:space="preserve" font-family="AvenirNext-Medium,Avenir Next" font-size="35.3" fill="#5D514B" transform="matrix(1.00, 0.00, -0.00, -1.00, 229.9, 237.8)">i</text><text xml:space="preserve" font-family="AvenirNext-Medium,Avenir Next" font-size="35.3" fill="#5D514B" transform="matrix(1.00, 0.00, -0.00, -1.00, 239.1, 237.8)">o</text><text xml:space="preserve" font-family="AvenirNext-Medium,Avenir Next" font-size="35.3" fill="#5D514B" transform="matrix(1.00, 0.00, -0.00, -1.00, 260.6, 237.8)">n</text><text xml:space="preserve" font-family="AvenirNext-Medium,Avenir Next" font-size="35.3" fill="#5D514B" transform="matrix(1.00, 0.00, -0.00, -1.00, 281.1, 237.8)">a</text><text xml:space="preserve" font-family="AvenirNext-Medium,Avenir Next" font-size="35.3" fill="#5D514B" transform="matrix(1.00, 0.00, -0.00, -1.00, 300.2, 237.8)">l</text><text xml:space="preserve" font-family="AvenirNext-Medium,Avenir Next" font-size="35.3" fill="#5D514B" transform="matrix(1.00, 0.00, -0.00, -1.00, 309.4, 237.8)"> </text><text xml:space="preserve" font-family="AvenirNext-Medium,Avenir Next" font-size="35.3" fill="#5D514B" transform="matrix(1.00, 0.00, -0.00, -1.00, 318.2, 237.8)">D</text><text xml:space="preserve" font-family="AvenirNext-Medium,Avenir Next" font-size="35.3" fill="#5D514B" transform="matrix(1.00, 0.00, -0.00, -1.00, 345.1, 237.8)">i</text><text xml:space="preserve" font-family="AvenirNext-Medium,Avenir Next" font-size="35.3" fill="#5D514B" transform="matrix(1.00, 0.00, -0.00, -1.00, 354.2, 237.8)">s</text><text xml:space="preserve" font-family="AvenirNext-Medium,Avenir Next" font-size="35.3" fill="#5D514B" transform="matrix(1.00, 0.00, -0.00, -1.00, 369.9, 237.8)">o</text><text xml:space="preserve" font-family="AvenirNext-Medium,Avenir Next" font-size="35.3" fill="#5D514B" transform="matrix(1.00, 0.00, -0.00, -1.00, 391.4, 237.8)">r</text><text xml:space="preserve" font-family="AvenirNext-Medium,Avenir Next" font-size="35.3" fill="#5D514B" transform="matrix(1.00, 0.00, -0.00, -1.00, 403.5, 237.8)">d</text><text xml:space="preserve" font-family="AvenirNext-Medium,Avenir Next" font-size="35.3" fill="#5D514B" transform="matrix(1.00, 0.00, -0.00, -1.00, 425.9, 237.8)">e</text><text xml:space="preserve" font-family="AvenirNext-Medium,Avenir Next" font-size="35.3" fill="#5D514B" transform="matrix(1.00, 0.00, -0.00, -1.00, 446.2, 237.8)">r</text><text xml:space="preserve" font-family="AvenirNext-Medium,Avenir Next" font-size="35.3" fill="#5D514B" transform="matrix(1.00, 0.00, -0.00, -1.00, 458.9, 237.8)">s</text><text xml:space="preserve" font-family="AvenirNext-Medium,Avenir Next" font-size="35.3" fill="#5D514B" transform="matrix(1.00, 0.00, -0.00, -1.00, 474.6, 237.8)"> </text><image xlink:href="../../CFA77806-E5C3-4835-81C7-5BE4A1301879/assets/400E19CF342B4765CDCF0405BD873603.png" width="15.00" height="15.00" transform="matrix(1.00, 0.00, -0.00, -1.00, 74.0, 174.0)"></image><text xml:space="preserve" font-family="AvenirNext-Medium,Avenir Next" font-size="26.5" fill="#5D514B" transform="matrix(1.00, 0.00, -0.00, -1.00, 75.0, 159.2)">•</text><image xlink:href="../../D8234D49-A756-4611-B3CE-DFE5A1F22F71/assets/D0A27845164B33AFA075CCC172E9FDA9.png" width="788.00" height="33.00" transform="matrix(1.00, 0.00, -0.00, -1.00, 109.0, 186.0)"></image><text xml:space="preserve" font-family="AvenirNext-Medium,Avenir Next" font-size="35.3" fill="#5D514B" transform="matrix(1.00, 0.00, -0.00, -1.00, 109.3, 158.5)">C</text><text xml:space="preserve" font-family="AvenirNext-Medium,Avenir Next" font-size="35.3" fill="#5D514B" transform="matrix(1.00, 0.00, -0.00, -1.00, 134.3, 158.5)">r</text><text xml:space="preserve" font-family="AvenirNext-Medium,Avenir Next" font-size="35.3" fill="#5D514B" transform="matrix(1.00, 0.00, -0.00, -1.00, 146.4, 158.5)">e</text><text xml:space="preserve" font-family="AvenirNext-Medium,Avenir Next" font-size="35.3" fill="#5D514B" transform="matrix(1.00, 0.00, -0.00, -1.00, 166.4, 158.5)">a</text><text xml:space="preserve" font-family="AvenirNext-Medium,Avenir Next" font-size="35.3" fill="#5D514B" transform="matrix(1.00, 0.00, -0.00, -1.00, 185.2, 158.5)">t</text><text xml:space="preserve" font-family="AvenirNext-Medium,Avenir Next" font-size="35.3" fill="#5D514B" transform="matrix(1.00, 0.00, -0.00, -1.00, 196.8, 158.5)">e</text><text xml:space="preserve" font-family="AvenirNext-Medium,Avenir Next" font-size="35.3" fill="#5D514B" transform="matrix(1.00, 0.00, -0.00, -1.00, 217.0, 158.5)">d</text><text xml:space="preserve" font-family="AvenirNext-Medium,Avenir Next" font-size="35.3" fill="#5D514B" transform="matrix(1.00, 0.00, -0.00, -1.00, 239.4, 158.5)"> </text><text xml:space="preserve" font-family="AvenirNext-Medium,Avenir Next" font-size="35.3" fill="#5D514B" transform="matrix(1.00, 0.00, -0.00, -1.00, 248.2, 158.5)">a</text><text xml:space="preserve" font-family="AvenirNext-Medium,Avenir Next" font-size="35.3" fill="#5D514B" transform="matrix(1.00, 0.00, -0.00, -1.00, 267.4, 158.5)">n</text><text xml:space="preserve" font-family="AvenirNext-Medium,Avenir Next" font-size="35.3" fill="#5D514B" transform="matrix(1.00, 0.00, -0.00, -1.00, 287.9, 158.5)"> </text><text xml:space="preserve" font-family="AvenirNext-Medium,Avenir Next" font-size="35.3" fill="#5D514B" transform="matrix(1.00, 0.00, -0.00, -1.00, 296.7, 158.5)">e</text><text xml:space="preserve" font-family="AvenirNext-Medium,Avenir Next" font-size="35.3" fill="#5D514B" transform="matrix(1.00, 0.00, -0.00, -1.00, 316.9, 158.5)">n</text><text xml:space="preserve" font-family="AvenirNext-Medium,Avenir Next" font-size="35.3" fill="#5D514B" transform="matrix(1.00, 0.00, -0.00, -1.00, 337.5, 158.5)">v</text><text xml:space="preserve" font-family="AvenirNext-Medium,Avenir Next" font-size="35.3" fill="#5D514B" transform="matrix(1.00, 0.00, -0.00, -1.00, 355.2, 158.5)">i</text><text xml:space="preserve" font-family="AvenirNext-Medium,Avenir Next" font-size="35.3" fill="#5D514B" transform="matrix(1.00, 0.00, -0.00, -1.00, 364.4, 158.5)">r</text><text xml:space="preserve" font-family="AvenirNext-Medium,Avenir Next" font-size="35.3" fill="#5D514B" transform="matrix(1.00, 0.00, -0.00, -1.00, 376.5, 158.5)">o</text><text xml:space="preserve" font-family="AvenirNext-Medium,Avenir Next" font-size="35.3" fill="#5D514B" transform="matrix(1.00, 0.00, -0.00, -1.00, 398.0, 158.5)">n</text><text xml:space="preserve" font-family="AvenirNext-Medium,Avenir Next" font-size="35.3" fill="#5D514B" transform="matrix(1.00, 0.00, -0.00, -1.00, 418.6, 158.5)">m</text><text xml:space="preserve" font-family="AvenirNext-Medium,Avenir Next" font-size="35.3" fill="#5D514B" transform="matrix(1.00, 0.00, -0.00, -1.00, 449.9, 158.5)">e</text><text xml:space="preserve" font-family="AvenirNext-Medium,Avenir Next" font-size="35.3" fill="#5D514B" transform="matrix(1.00, 0.00, -0.00, -1.00, 470.1, 158.5)">n</text><text xml:space="preserve" font-family="AvenirNext-Medium,Avenir Next" font-size="35.3" fill="#5D514B" transform="matrix(1.00, 0.00, -0.00, -1.00, 490.6, 158.5)">t</text><text xml:space="preserve" font-family="AvenirNext-Medium,Avenir Next" font-size="35.3" fill="#5D514B" transform="matrix(1.00, 0.00, -0.00, -1.00, 502.2, 158.5)"> </text><text xml:space="preserve" font-family="AvenirNext-Medium,Avenir Next" font-size="35.3" fill="#5D514B" transform="matrix(1.00, 0.00, -0.00, -1.00, 511.0, 158.5)">t</text><text xml:space="preserve" font-family="AvenirNext-Medium,Avenir Next" font-size="35.3" fill="#5D514B" transform="matrix(1.00, 0.00, -0.00, -1.00, 522.6, 158.5)">h</text><text xml:space="preserve" font-family="AvenirNext-Medium,Avenir Next" font-size="35.3" fill="#5D514B" transform="matrix(1.00, 0.00, -0.00, -1.00, 543.2, 158.5)">a</text><text xml:space="preserve" font-family="AvenirNext-Medium,Avenir Next" font-size="35.3" fill="#5D514B" transform="matrix(1.00, 0.00, -0.00, -1.00, 562.0, 158.5)">t</text><text xml:space="preserve" font-family="AvenirNext-Medium,Avenir Next" font-size="35.3" fill="#5D514B" transform="matrix(1.00, 0.00, -0.00, -1.00, 573.6, 158.5)"> </text><text xml:space="preserve" font-family="AvenirNext-Medium,Avenir Next" font-size="35.3" fill="#5D514B" transform="matrix(1.00, 0.00, -0.00, -1.00, 582.4, 158.5)">w</text><text xml:space="preserve" font-family="AvenirNext-Medium,Avenir Next" font-size="35.3" fill="#5D514B" transform="matrix(1.00, 0.00, -0.00, -1.00, 609.7, 158.5)">a</text><text xml:space="preserve" font-family="AvenirNext-Medium,Avenir Next" font-size="35.3" fill="#5D514B" transform="matrix(1.00, 0.00, -0.00, -1.00, 628.8, 158.5)">r</text><text xml:space="preserve" font-family="AvenirNext-Medium,Avenir Next" font-size="35.3" fill="#5D514B" transform="matrix(1.00, 0.00, -0.00, -1.00, 641.6, 158.5)">r</text><text xml:space="preserve" font-family="AvenirNext-Medium,Avenir Next" font-size="35.3" fill="#5D514B" transform="matrix(1.00, 0.00, -0.00, -1.00, 653.9, 158.5)">a</text><text xml:space="preserve" font-family="AvenirNext-Medium,Avenir Next" font-size="35.3" fill="#5D514B" transform="matrix(1.00, 0.00, -0.00, -1.00, 673.0, 158.5)">n</text><text xml:space="preserve" font-family="AvenirNext-Medium,Avenir Next" font-size="35.3" fill="#5D514B" transform="matrix(1.00, 0.00, -0.00, -1.00, 693.6, 158.5)">t</text><text xml:space="preserve" font-family="AvenirNext-Medium,Avenir Next" font-size="35.3" fill="#5D514B" transform="matrix(1.00, 0.00, -0.00, -1.00, 705.2, 158.5)">e</text><text xml:space="preserve" font-family="AvenirNext-Medium,Avenir Next" font-size="35.3" fill="#5D514B" transform="matrix(1.00, 0.00, -0.00, -1.00, 725.4, 158.5)">d</text><text xml:space="preserve" font-family="AvenirNext-Medium,Avenir Next" font-size="35.3" fill="#5D514B" transform="matrix(1.00, 0.00, -0.00, -1.00, 747.8, 158.5)"> </text><text xml:space="preserve" font-family="AvenirNext-Medium,Avenir Next" font-size="35.3" fill="#5D514B" transform="matrix(1.00, 0.00, -0.00, -1.00, 756.6, 158.5)">c</text><text xml:space="preserve" font-family="AvenirNext-Medium,Avenir Next" font-size="35.3" fill="#5D514B" transform="matrix(1.00, 0.00, -0.00, -1.00, 774.0, 158.5)">o</text><text xml:space="preserve" font-family="AvenirNext-Medium,Avenir Next" font-size="35.3" fill="#5D514B" transform="matrix(1.00, 0.00, -0.00, -1.00, 795.6, 158.5)">n</text><text xml:space="preserve" font-family="AvenirNext-Medium,Avenir Next" font-size="35.3" fill="#5D514B" transform="matrix(1.00, 0.00, -0.00, -1.00, 816.1, 158.5)">s</text><text xml:space="preserve" font-family="AvenirNext-Medium,Avenir Next" font-size="35.3" fill="#5D514B" transform="matrix(1.00, 0.00, -0.00, -1.00, 831.8, 158.5)">t</text><text xml:space="preserve" font-family="AvenirNext-Medium,Avenir Next" font-size="35.3" fill="#5D514B" transform="matrix(1.00, 0.00, -0.00, -1.00, 843.4, 158.5)">a</text><text xml:space="preserve" font-family="AvenirNext-Medium,Avenir Next" font-size="35.3" fill="#5D514B" transform="matrix(1.00, 0.00, -0.00, -1.00, 862.5, 158.5)">n</text><text xml:space="preserve" font-family="AvenirNext-Medium,Avenir Next" font-size="35.3" fill="#5D514B" transform="matrix(1.00, 0.00, -0.00, -1.00, 883.0, 158.5)">t</text><text xml:space="preserve" font-family="AvenirNext-Medium,Avenir Next" font-size="35.3" fill="#5D514B" transform="matrix(1.00, 0.00, -0.00, -1.00, 894.6, 158.5)"> </text><image xlink:href="../../D8234D49-A756-4611-B3CE-DFE5A1F22F71/assets/A4FF67A0697F6253A94942697E58E64A.png" width="228.00" height="32.00" transform="matrix(1.00, 0.00, -0.00, -1.00, 109.0, 138.0)"></image><text xml:space="preserve" font-family="AvenirNext-Medium,Avenir Next" font-size="35.3" fill="#5D514B" transform="matrix(1.00, 0.00, -0.00, -1.00, 109.3, 110.5)">d</text><text xml:space="preserve" font-family="AvenirNext-Medium,Avenir Next" font-size="35.3" fill="#5D514B" transform="matrix(1.00, 0.00, -0.00, -1.00, 131.7, 110.5)">i</text><text xml:space="preserve" font-family="AvenirNext-Medium,Avenir Next" font-size="35.3" fill="#5D514B" transform="matrix(1.00, 0.00, -0.00, -1.00, 140.8, 110.5)">f</text><text xml:space="preserve" font-family="AvenirNext-Medium,Avenir Next" font-size="35.3" fill="#5D514B" transform="matrix(1.00, 0.00, -0.00, -1.00, 151.0, 110.5)">f</text><text xml:space="preserve" font-family="AvenirNext-Medium,Avenir Next" font-size="35.3" fill="#5D514B" transform="matrix(1.00, 0.00, -0.00, -1.00, 162.0, 110.5)">e</text><text xml:space="preserve" font-family="AvenirNext-Medium,Avenir Next" font-size="35.3" fill="#5D514B" transform="matrix(1.00, 0.00, -0.00, -1.00, 182.2, 110.5)">r</text><text xml:space="preserve" font-family="AvenirNext-Medium,Avenir Next" font-size="35.3" fill="#5D514B" transform="matrix(1.00, 0.00, -0.00, -1.00, 194.3, 110.5)">e</text><text xml:space="preserve" font-family="AvenirNext-Medium,Avenir Next" font-size="35.3" fill="#5D514B" transform="matrix(1.00, 0.00, -0.00, -1.00, 214.5, 110.5)">n</text><text xml:space="preserve" font-family="AvenirNext-Medium,Avenir Next" font-size="35.3" fill="#5D514B" transform="matrix(1.00, 0.00, -0.00, -1.00, 235.1, 110.5)">t</text><text xml:space="preserve" font-family="AvenirNext-Medium,Avenir Next" font-size="35.3" fill="#5D514B" transform="matrix(1.00, 0.00, -0.00, -1.00, 246.7, 110.5)">i</text><text xml:space="preserve" font-family="AvenirNext-Medium,Avenir Next" font-size="35.3" fill="#5D514B" transform="matrix(1.00, 0.00, -0.00, -1.00, 255.8, 110.5)">a</text><text xml:space="preserve" font-family="AvenirNext-Medium,Avenir Next" font-size="35.3" fill="#5D514B" transform="matrix(1.00, 0.00, -0.00, -1.00, 274.6, 110.5)">t</text><text xml:space="preserve" font-family="AvenirNext-Medium,Avenir Next" font-size="35.3" fill="#5D514B" transform="matrix(1.00, 0.00, -0.00, -1.00, 286.2, 110.5)">i</text><text xml:space="preserve" font-family="AvenirNext-Medium,Avenir Next" font-size="35.3" fill="#5D514B" transform="matrix(1.00, 0.00, -0.00, -1.00, 295.3, 110.5)">o</text><text xml:space="preserve" font-family="AvenirNext-Medium,Avenir Next" font-size="35.3" fill="#5D514B" transform="matrix(1.00, 0.00, -0.00, -1.00, 316.9, 110.5)">n</text></g></svg>