<?xml version="1.0" encoding="UTF-8" standalone="no"?><svg xmlns="http://www.w3.org/2000/svg" xmlns:xlink="http://www.w3.org/1999/xlink" clip-rule="evenodd" stroke-miterlimit="10" viewBox="0 0 1024 768"><desc>SVG generated by Keynote</desc><defs></defs><g transform="matrix(1.00, 0.00, -0.00, -1.00, 0.0, 768.0)"><g><clipPath id="clip0x7ff82da414d0"><path d="M 0.0 768.0 L 1024.0 768.0 L 1024.0 0.0 L 0.0 0.0 Z M 0.0 768.0 "></path></clipPath><g clip-path="url(#clip0x7ff82da414d0)"><image xlink:href="../../5AFCDCF3-4DC9-448B-ACCC-D8922AE4CE0C/assets/B5EE15FD4291743AF7496326DC17A466.jpeg" width="2048.00" height="1536.00" transform="matrix(0.50, 0.00, -0.00, -0.50, 0.0, 768.0)"></image></g></g><g opacity="0.45"><g><clipPath id="clip0x7ff82da8e430"><path d="M 30.0 48.0 L 994.0 48.0 L 994.0 741.0 L 30.0 741.0 Z M 30.0 48.0 "></path></clipPath><g clip-path="url(#clip0x7ff82da8e430)"><image xlink:href="../../5AFCDCF3-4DC9-448B-ACCC-D8922AE4CE0C/assets/1E0376F862DA30D710D4F1E0694CAC10.png" width="1374.00" height="986.00" transform="matrix(0.70, 0.00, -0.00, -0.70, 31.0, 740.0)"></image></g></g></g><image xlink:href="../../5AFCDCF3-4DC9-448B-ACCC-D8922AE4CE0C/assets/19056A583ADC225EF4FE886F03EAE507.png" width="379.00" height="41.00" transform="matrix(1.00, 0.00, -0.00, -1.00, 73.0, 449.0)"></image><text xml:space="preserve" font-family="AvenirNext-Bold,Avenir Next" font-weight="bold" font-size="48.0" fill="#3D3B38" transform="matrix(1.00, 0.00, -0.00, -1.00, 75.0, 413.6)">T</text><text xml:space="preserve" font-family="AvenirNext-Bold,Avenir Next" font-weight="bold" font-size="48.0" fill="#3D3B38" transform="matrix(1.00, 0.00, -0.00, -1.00, 106.7, 413.6)">H</text><text xml:space="preserve" font-family="AvenirNext-Bold,Avenir Next" font-weight="bold" font-size="48.0" fill="#3D3B38" transform="matrix(1.00, 0.00, -0.00, -1.00, 147.2, 413.6)">E</text><text xml:space="preserve" font-family="AvenirNext-Bold,Avenir Next" font-weight="bold" font-size="48.0" fill="#3D3B38" transform="matrix(1.00, 0.00, -0.00, -1.00, 180.2, 413.6)"> </text><text xml:space="preserve" font-family="AvenirNext-Bold,Avenir Next" font-weight="bold" font-size="48.0" fill="#3D3B38" transform="matrix(1.00, 0.00, -0.00, -1.00, 196.1, 413.6)">C</text><text xml:space="preserve" font-family="AvenirNext-Bold,Avenir Next" font-weight="bold" font-size="48.0" fill="#3D3B38" transform="matrix(1.00, 0.00, -0.00, -1.00, 232.7, 413.6)">O</text><text xml:space="preserve" font-family="AvenirNext-Bold,Avenir Next" font-weight="bold" font-size="48.0" fill="#3D3B38" transform="matrix(1.00, 0.00, -0.00, -1.00, 277.4, 413.6)">N</text><text xml:space="preserve" font-family="AvenirNext-Bold,Avenir Next" font-weight="bold" font-size="48.0" fill="#3D3B38" transform="matrix(1.00, 0.00, -0.00, -1.00, 319.2, 413.6)">T</text><text xml:space="preserve" font-family="AvenirNext-Bold,Avenir Next" font-weight="bold" font-size="48.0" fill="#3D3B38" transform="matrix(1.00, 0.00, -0.00, -1.00, 350.9, 413.6)">E</text><text xml:space="preserve" font-family="AvenirNext-Bold,Avenir Next" font-weight="bold" font-size="48.0" fill="#3D3B38" transform="matrix(1.00, 0.00, -0.00, -1.00, 383.9, 413.6)">X</text><text xml:space="preserve" font-family="AvenirNext-Bold,Avenir Next" font-weight="bold" font-size="48.0" fill="#3D3B38" transform="matrix(1.00, 0.00, -0.00, -1.00, 421.5, 413.6)">T</text><image xlink:href="../../5AFCDCF3-4DC9-448B-ACCC-D8922AE4CE0C/assets/6B715B9BE9E3967978D26B3DBA74A0B9.png" width="759.00" height="32.00" transform="matrix(1.00, 0.00, -0.00, -1.00, 76.0, 379.0)"></image><text xml:space="preserve" font-family="AvenirNext-Regular,Avenir Next" font-size="36.0" fill="#3D3B38" transform="matrix(1.00, 0.00, -0.00, -1.00, 75.0, 352.2)">P</text><text xml:space="preserve" font-family="AvenirNext-Regular,Avenir Next" font-size="36.0" fill="#3D3B38" transform="matrix(1.00, 0.00, -0.00, -1.00, 98.8, 352.2)">O</text><text xml:space="preserve" font-family="AvenirNext-Regular,Avenir Next" font-size="36.0" fill="#3D3B38" transform="matrix(1.00, 0.00, -0.00, -1.00, 132.2, 352.2)">R</text><text xml:space="preserve" font-family="AvenirNext-Regular,Avenir Next" font-size="36.0" fill="#3D3B38" transform="matrix(1.00, 0.00, -0.00, -1.00, 156.3, 352.2)">T</text><text xml:space="preserve" font-family="AvenirNext-Regular,Avenir Next" font-size="36.0" fill="#3D3B38" transform="matrix(1.00, 0.00, -0.00, -1.00, 179.7, 352.2)">L</text><text xml:space="preserve" font-family="AvenirNext-Regular,Avenir Next" font-size="36.0" fill="#3D3B38" transform="matrix(1.00, 0.00, -0.00, -1.00, 200.9, 352.2)">A</text><text xml:space="preserve" font-family="AvenirNext-Regular,Avenir Next" font-size="36.0" fill="#3D3B38" transform="matrix(1.00, 0.00, -0.00, -1.00, 229.0, 352.2)">N</text><text xml:space="preserve" font-family="AvenirNext-Regular,Avenir Next" font-size="36.0" fill="#3D3B38" transform="matrix(1.00, 0.00, -0.00, -1.00, 259.4, 352.2)">D</text><text xml:space="preserve" font-family="AvenirNext-Regular,Avenir Next" font-size="36.0" fill="#3D3B38" transform="matrix(1.00, 0.00, -0.00, -1.00, 289.5, 352.2)"> </text><text xml:space="preserve" font-family="AvenirNext-Regular,Avenir Next" font-size="36.0" fill="#3D3B38" transform="matrix(1.00, 0.00, -0.00, -1.00, 300.7, 352.2)">A</text><text xml:space="preserve" font-family="AvenirNext-Regular,Avenir Next" font-size="36.0" fill="#3D3B38" transform="matrix(1.00, 0.00, -0.00, -1.00, 328.8, 352.2)">R</text><text xml:space="preserve" font-family="AvenirNext-Regular,Avenir Next" font-size="36.0" fill="#3D3B38" transform="matrix(1.00, 0.00, -0.00, -1.00, 352.8, 352.2)">T</text><text xml:space="preserve" font-family="AvenirNext-Regular,Avenir Next" font-size="36.0" fill="#3D3B38" transform="matrix(1.00, 0.00, -0.00, -1.00, 376.2, 352.2)">S</text><text xml:space="preserve" font-family="AvenirNext-Regular,Avenir Next" font-size="36.0" fill="#3D3B38" transform="matrix(1.00, 0.00, -0.00, -1.00, 399.4, 352.2)"> </text><text xml:space="preserve" font-family="AvenirNext-Regular,Avenir Next" font-size="36.0" fill="#3D3B38" transform="matrix(1.00, 0.00, -0.00, -1.00, 411.3, 352.2)">&amp;</text><text xml:space="preserve" font-family="AvenirNext-Regular,Avenir Next" font-size="36.0" fill="#3D3B38" transform="matrix(1.00, 0.00, -0.00, -1.00, 439.5, 352.2)"> </text><text xml:space="preserve" font-family="AvenirNext-Regular,Avenir Next" font-size="36.0" fill="#3D3B38" transform="matrix(1.00, 0.00, -0.00, -1.00, 450.5, 352.2)">T</text><text xml:space="preserve" font-family="AvenirNext-Regular,Avenir Next" font-size="36.0" fill="#3D3B38" transform="matrix(1.00, 0.00, -0.00, -1.00, 473.9, 352.2)">E</text><text xml:space="preserve" font-family="AvenirNext-Regular,Avenir Next" font-size="36.0" fill="#3D3B38" transform="matrix(1.00, 0.00, -0.00, -1.00, 498.1, 352.2)">C</text><text xml:space="preserve" font-family="AvenirNext-Regular,Avenir Next" font-size="36.0" fill="#3D3B38" transform="matrix(1.00, 0.00, -0.00, -1.00, 526.9, 352.2)">H</text><text xml:space="preserve" font-family="AvenirNext-Regular,Avenir Next" font-size="36.0" fill="#3D3B38" transform="matrix(1.00, 0.00, -0.00, -1.00, 555.6, 352.2)">N</text><text xml:space="preserve" font-family="AvenirNext-Regular,Avenir Next" font-size="36.0" fill="#3D3B38" transform="matrix(1.00, 0.00, -0.00, -1.00, 586.0, 352.2)">O</text><text xml:space="preserve" font-family="AvenirNext-Regular,Avenir Next" font-size="36.0" fill="#3D3B38" transform="matrix(1.00, 0.00, -0.00, -1.00, 619.5, 352.2)">L</text><text xml:space="preserve" font-family="AvenirNext-Regular,Avenir Next" font-size="36.0" fill="#3D3B38" transform="matrix(1.00, 0.00, -0.00, -1.00, 639.7, 352.2)">O</text><text xml:space="preserve" font-family="AvenirNext-Regular,Avenir Next" font-size="36.0" fill="#3D3B38" transform="matrix(1.00, 0.00, -0.00, -1.00, 673.1, 352.2)">G</text><text xml:space="preserve" font-family="AvenirNext-Regular,Avenir Next" font-size="36.0" fill="#3D3B38" transform="matrix(1.00, 0.00, -0.00, -1.00, 702.3, 352.2)">Y</text><text xml:space="preserve" font-family="AvenirNext-Regular,Avenir Next" font-size="36.0" fill="#3D3B38" transform="matrix(1.00, 0.00, -0.00, -1.00, 726.0, 352.2)"> </text><text xml:space="preserve" font-family="AvenirNext-Regular,Avenir Next" font-size="36.0" fill="#3D3B38" transform="matrix(1.00, 0.00, -0.00, -1.00, 737.9, 352.2)">H</text><text xml:space="preserve" font-family="AvenirNext-Regular,Avenir Next" font-size="36.0" fill="#3D3B38" transform="matrix(1.00, 0.00, -0.00, -1.00, 766.6, 352.2)">I</text><text xml:space="preserve" font-family="AvenirNext-Regular,Avenir Next" font-size="36.0" fill="#3D3B38" transform="matrix(1.00, 0.00, -0.00, -1.00, 778.9, 352.2)">G</text><text xml:space="preserve" font-family="AvenirNext-Regular,Avenir Next" font-size="36.0" fill="#3D3B38" transform="matrix(1.00, 0.00, -0.00, -1.00, 809.8, 352.2)">H</text><text xml:space="preserve" font-family="AvenirNext-Regular,Avenir Next" font-size="36.0" fill="#3D3B38" transform="matrix(1.00, 0.00, -0.00, -1.00, 838.5, 352.2)"> </text><image xlink:href="../../5AFCDCF3-4DC9-448B-ACCC-D8922AE4CE0C/assets/8276236F4A6123082500D0E244719644.png" width="169.00" height="32.00" transform="matrix(1.00, 0.00, -0.00, -1.00, 74.0, 340.0)"></image><text xml:space="preserve" font-family="AvenirNext-Regular,Avenir Next" font-size="36.0" fill="#3D3B38" transform="matrix(1.00, 0.00, -0.00, -1.00, 75.0, 313.0)">S</text><text xml:space="preserve" font-family="AvenirNext-Regular,Avenir Next" font-size="36.0" fill="#3D3B38" transform="matrix(1.00, 0.00, -0.00, -1.00, 98.2, 313.0)">C</text><text xml:space="preserve" font-family="AvenirNext-Regular,Avenir Next" font-size="36.0" fill="#3D3B38" transform="matrix(1.00, 0.00, -0.00, -1.00, 127.0, 313.0)">H</text><text xml:space="preserve" font-family="AvenirNext-Regular,Avenir Next" font-size="36.0" fill="#3D3B38" transform="matrix(1.00, 0.00, -0.00, -1.00, 155.7, 313.0)">O</text><text xml:space="preserve" font-family="AvenirNext-Regular,Avenir Next" font-size="36.0" fill="#3D3B38" transform="matrix(1.00, 0.00, -0.00, -1.00, 189.2, 313.0)">O</text><text xml:space="preserve" font-family="AvenirNext-Regular,Avenir Next" font-size="36.0" fill="#3D3B38" transform="matrix(1.00, 0.00, -0.00, -1.00, 222.7, 313.0)">L</text></g></svg>