<?xml version="1.0" encoding="UTF-8" standalone="no"?><svg xmlns="http://www.w3.org/2000/svg" xmlns:xlink="http://www.w3.org/1999/xlink" clip-rule="evenodd" stroke-miterlimit="10" viewBox="0 0 1024 768"><desc>SVG generated by Keynote</desc><defs></defs><g transform="matrix(1.00, 0.00, -0.00, -1.00, 0.0, 768.0)"><g><clipPath id="clip0x7fc036cf7750"><path d="M 0.0 768.0 L 1024.0 768.0 L 1024.0 0.0 L 0.0 0.0 Z M 0.0 768.0 "></path></clipPath><g clip-path="url(#clip0x7fc036cf7750)"><image xlink:href="../../5AFCDCF3-4DC9-448B-ACCC-D8922AE4CE0C/assets/B5EE15FD4291743AF7496326DC17A466.jpeg" width="2048.00" height="1536.00" transform="matrix(0.50, 0.00, -0.00, -0.50, 0.0, 768.0)"></image></g></g><g opacity="0.45"><g><clipPath id="clip0x7fc036f02080"><path d="M 30.0 48.0 L 994.0 48.0 L 994.0 741.0 L 30.0 741.0 Z M 30.0 48.0 "></path></clipPath><g clip-path="url(#clip0x7fc036f02080)"><image xlink:href="../../5AFCDCF3-4DC9-448B-ACCC-D8922AE4CE0C/assets/1E0376F862DA30D710D4F1E0694CAC10.png" width="1374.00" height="986.00" transform="matrix(0.70, 0.00, -0.00, -0.70, 31.0, 740.0)"></image></g></g></g><image xlink:href="../../D0DFEE8E-B219-40DF-BD4F-28D1EA6FEFB4/assets/DAA0D2E48AD2AACE39A05F444C95B10E.png" width="726.00" height="39.00" transform="matrix(1.00, 0.00, -0.00, -1.00, 44.0, 749.0)"></image><text xml:space="preserve" font-family="AvenirNext-Bold,Avenir Next" font-weight="bold" font-size="41.0" fill="#3D3B38" transform="matrix(1.00, 0.00, -0.00, -1.00, 46.7, 717.0)">/</text><text xml:space="preserve" font-family="AvenirNext-Bold,Avenir Next" font-weight="bold" font-size="41.0" fill="#3D3B38" transform="matrix(1.00, 0.00, -0.00, -1.00, 66.9, 717.0)">/</text><text xml:space="preserve" font-family="AvenirNext-Bold,Avenir Next" font-weight="bold" font-size="41.0" fill="#3D3B38" transform="matrix(1.00, 0.00, -0.00, -1.00, 87.2, 717.0)">O</text><text xml:space="preserve" font-family="AvenirNext-Bold,Avenir Next" font-weight="bold" font-size="41.0" fill="#3D3B38" transform="matrix(1.00, 0.00, -0.00, -1.00, 125.4, 717.0)">B</text><text xml:space="preserve" font-family="AvenirNext-Bold,Avenir Next" font-weight="bold" font-size="41.0" fill="#3D3B38" transform="matrix(1.00, 0.00, -0.00, -1.00, 156.0, 717.0)">S</text><text xml:space="preserve" font-family="AvenirNext-Bold,Avenir Next" font-weight="bold" font-size="41.0" fill="#3D3B38" transform="matrix(1.00, 0.00, -0.00, -1.00, 183.5, 717.0)">E</text><text xml:space="preserve" font-family="AvenirNext-Bold,Avenir Next" font-weight="bold" font-size="41.0" fill="#3D3B38" transform="matrix(1.00, 0.00, -0.00, -1.00, 211.6, 717.0)">R</text><text xml:space="preserve" font-family="AvenirNext-Bold,Avenir Next" font-weight="bold" font-size="41.0" fill="#3D3B38" transform="matrix(1.00, 0.00, -0.00, -1.00, 241.6, 717.0)">V</text><text xml:space="preserve" font-family="AvenirNext-Bold,Avenir Next" font-weight="bold" font-size="41.0" fill="#3D3B38" transform="matrix(1.00, 0.00, -0.00, -1.00, 272.9, 717.0)">E</text><text xml:space="preserve" font-family="AvenirNext-Bold,Avenir Next" font-weight="bold" font-size="41.0" fill="#3D3B38" transform="matrix(1.00, 0.00, -0.00, -1.00, 301.0, 717.0)">/</text><text xml:space="preserve" font-family="AvenirNext-Bold,Avenir Next" font-weight="bold" font-size="41.0" fill="#3D3B38" transform="matrix(1.00, 0.00, -0.00, -1.00, 321.3, 717.0)">R</text><text xml:space="preserve" font-family="AvenirNext-Bold,Avenir Next" font-weight="bold" font-size="41.0" fill="#3D3B38" transform="matrix(1.00, 0.00, -0.00, -1.00, 351.8, 717.0)">E</text><text xml:space="preserve" font-family="AvenirNext-Bold,Avenir Next" font-weight="bold" font-size="41.0" fill="#3D3B38" transform="matrix(1.00, 0.00, -0.00, -1.00, 379.9, 717.0)">F</text><text xml:space="preserve" font-family="AvenirNext-Bold,Avenir Next" font-weight="bold" font-size="41.0" fill="#3D3B38" transform="matrix(1.00, 0.00, -0.00, -1.00, 406.8, 717.0)">L</text><text xml:space="preserve" font-family="AvenirNext-Bold,Avenir Next" font-weight="bold" font-size="41.0" fill="#3D3B38" transform="matrix(1.00, 0.00, -0.00, -1.00, 431.7, 717.0)">E</text><text xml:space="preserve" font-family="AvenirNext-Bold,Avenir Next" font-weight="bold" font-size="41.0" fill="#3D3B38" transform="matrix(1.00, 0.00, -0.00, -1.00, 459.9, 717.0)">C</text><text xml:space="preserve" font-family="AvenirNext-Bold,Avenir Next" font-weight="bold" font-size="41.0" fill="#3D3B38" transform="matrix(1.00, 0.00, -0.00, -1.00, 491.4, 717.0)">T</text><text xml:space="preserve" font-family="AvenirNext-Bold,Avenir Next" font-weight="bold" font-size="41.0" fill="#3D3B38" transform="matrix(1.00, 0.00, -0.00, -1.00, 518.5, 717.0)">/</text><text xml:space="preserve" font-family="AvenirNext-Bold,Avenir Next" font-weight="bold" font-size="41.0" fill="#3D3B38" transform="matrix(1.00, 0.00, -0.00, -1.00, 538.8, 717.0)">E</text><text xml:space="preserve" font-family="AvenirNext-Bold,Avenir Next" font-weight="bold" font-size="41.0" fill="#3D3B38" transform="matrix(1.00, 0.00, -0.00, -1.00, 567.0, 717.0)">V</text><text xml:space="preserve" font-family="AvenirNext-Bold,Avenir Next" font-weight="bold" font-size="41.0" fill="#3D3B38" transform="matrix(1.00, 0.00, -0.00, -1.00, 597.0, 717.0)">A</text><text xml:space="preserve" font-family="AvenirNext-Bold,Avenir Next" font-weight="bold" font-size="41.0" fill="#3D3B38" transform="matrix(1.00, 0.00, -0.00, -1.00, 630.2, 717.0)">L</text><text xml:space="preserve" font-family="AvenirNext-Bold,Avenir Next" font-weight="bold" font-size="41.0" fill="#3D3B38" transform="matrix(1.00, 0.00, -0.00, -1.00, 654.0, 717.0)">U</text><text xml:space="preserve" font-family="AvenirNext-Bold,Avenir Next" font-weight="bold" font-size="41.0" fill="#3D3B38" transform="matrix(1.00, 0.00, -0.00, -1.00, 686.8, 717.0)">A</text><text xml:space="preserve" font-family="AvenirNext-Bold,Avenir Next" font-weight="bold" font-size="41.0" fill="#3D3B38" transform="matrix(1.00, 0.00, -0.00, -1.00, 717.5, 717.0)">T</text><text xml:space="preserve" font-family="AvenirNext-Bold,Avenir Next" font-weight="bold" font-size="41.0" fill="#3D3B38" transform="matrix(1.00, 0.00, -0.00, -1.00, 744.6, 717.0)">E</text><image xlink:href="../../EB591F98-561C-46C0-ACD7-8D30C414D11B/assets/8CD49E7151873FCC594F9736F7175189.png" width="241.00" height="37.00" transform="matrix(1.00, 0.00, -0.00, -1.00, 682.0, 592.0)"></image><text xml:space="preserve" font-family="AvenirNext-Medium,Avenir Next" font-size="32.0" fill="#5D514B" transform="matrix(1.00, 0.00, -0.00, -1.00, 682.2, 567.2)">L</text><text xml:space="preserve" font-family="AvenirNext-Medium,Avenir Next" font-size="32.0" fill="#5D514B" transform="matrix(1.00, 0.00, -0.00, -1.00, 698.0, 567.2)">e</text><text xml:space="preserve" font-family="AvenirNext-Medium,Avenir Next" font-size="32.0" fill="#5D514B" transform="matrix(1.00, 0.00, -0.00, -1.00, 716.1, 567.2)">a</text><text xml:space="preserve" font-family="AvenirNext-Medium,Avenir Next" font-size="32.0" fill="#5D514B" transform="matrix(1.00, 0.00, -0.00, -1.00, 733.5, 567.2)">r</text><text xml:space="preserve" font-family="AvenirNext-Medium,Avenir Next" font-size="32.0" fill="#5D514B" transform="matrix(1.00, 0.00, -0.00, -1.00, 745.1, 567.2)">n</text><text xml:space="preserve" font-family="AvenirNext-Medium,Avenir Next" font-size="32.0" fill="#5D514B" transform="matrix(1.00, 0.00, -0.00, -1.00, 763.7, 567.2)">i</text><text xml:space="preserve" font-family="AvenirNext-Medium,Avenir Next" font-size="32.0" fill="#5D514B" transform="matrix(1.00, 0.00, -0.00, -1.00, 772.0, 567.2)">n</text><text xml:space="preserve" font-family="AvenirNext-Medium,Avenir Next" font-size="32.0" fill="#5D514B" transform="matrix(1.00, 0.00, -0.00, -1.00, 790.6, 567.2)">g</text><text xml:space="preserve" font-family="AvenirNext-Medium,Avenir Next" font-size="32.0" fill="#5D514B" transform="matrix(1.00, 0.00, -0.00, -1.00, 810.8, 567.2)"> </text><text xml:space="preserve" font-family="AvenirNext-Medium,Avenir Next" font-size="32.0" fill="#5D514B" transform="matrix(1.00, 0.00, -0.00, -1.00, 818.8, 567.2)">t</text><text xml:space="preserve" font-family="AvenirNext-Medium,Avenir Next" font-size="32.0" fill="#5D514B" transform="matrix(1.00, 0.00, -0.00, -1.00, 829.3, 567.2)">o</text><text xml:space="preserve" font-family="AvenirNext-Medium,Avenir Next" font-size="32.0" fill="#5D514B" transform="matrix(1.00, 0.00, -0.00, -1.00, 848.9, 567.2)"> </text><text xml:space="preserve" font-family="AvenirNext-Medium,Avenir Next" font-size="32.0" fill="#5D514B" transform="matrix(1.00, 0.00, -0.00, -1.00, 856.9, 567.2)">l</text><text xml:space="preserve" font-family="AvenirNext-Medium,Avenir Next" font-size="32.0" fill="#5D514B" transform="matrix(1.00, 0.00, -0.00, -1.00, 865.2, 567.2)">o</text><text xml:space="preserve" font-family="AvenirNext-Medium,Avenir Next" font-size="32.0" fill="#5D514B" transform="matrix(1.00, 0.00, -0.00, -1.00, 884.7, 567.2)">o</text><text xml:space="preserve" font-family="AvenirNext-Medium,Avenir Next" font-size="32.0" fill="#5D514B" transform="matrix(1.00, 0.00, -0.00, -1.00, 904.2, 567.2)">k</text><g><clipPath id="clip0x7fc036d78910"><path d="M -6.0 699.0 L 586.0 699.0 L 586.0 -53.0 L -6.0 -53.0 Z M -6.4 698.8 "></path></clipPath><g clip-path="url(#clip0x7fc036d78910)"><image xlink:href="../../EB591F98-561C-46C0-ACD7-8D30C414D11B/assets/1C9AB39537F1B8CEB53EAD1E7EC75816.jpeg" width="600.00" height="784.00" transform="matrix(0.95, 0.00, -0.00, -0.95, 6.0, 714.0)"></image></g></g><image xlink:href="../../EB591F98-561C-46C0-ACD7-8D30C414D11B/assets/8FA3C7FEF6B3F36A6382E66890EF518F.png" width="193.00" height="29.00" transform="matrix(1.00, 0.00, -0.00, -1.00, 335.3, 677.2)" opacity="0.20"></image><path d="M 338.0 673.0 L 527.0 673.0 L 527.0 648.0 L 338.0 648.0 Z M 338.0 673.4 " fill="#F6F5F3"></path><image xlink:href="../../EB591F98-561C-46C0-ACD7-8D30C414D11B/assets/5BF1614A969CB04946451FF1774D28B6.jpeg" width="497.00" height="276.00" transform="matrix(0.88, 0.00, -0.00, -0.88, 583.0, 457.0)"></image><path d="M -0.3 0.0 L 437.7 0.0 L 437.7 243.0 L -0.3 243.0 Z M -0.3 0.0 " fill="none" stroke="#444444" stroke-width="4.00" transform="matrix(1.00, 0.00, 0.00, -1.00, 583.3, 457.0)"></path></g></svg>