<?xml version="1.0" encoding="UTF-8" standalone="no"?><svg xmlns="http://www.w3.org/2000/svg" xmlns:xlink="http://www.w3.org/1999/xlink" clip-rule="evenodd" stroke-miterlimit="10" viewBox="0 0 1024 768"><desc>SVG generated by Keynote</desc><defs></defs><g transform="matrix(1.00, 0.00, -0.00, -1.00, 0.0, 768.0)"><g><clipPath id="clip0x7ff831889920"><path d="M 0.0 768.0 L 1024.0 768.0 L 1024.0 0.0 L 0.0 0.0 Z M 0.0 768.0 "></path></clipPath><g clip-path="url(#clip0x7ff831889920)"><image xlink:href="../../5AFCDCF3-4DC9-448B-ACCC-D8922AE4CE0C/assets/B5EE15FD4291743AF7496326DC17A466.jpeg" width="2048.00" height="1536.00" transform="matrix(0.50, 0.00, -0.00, -0.50, 0.0, 768.0)"></image></g></g><g opacity="0.45"><g><clipPath id="clip0x7ff82f796aa0"><path d="M 30.0 48.0 L 994.0 48.0 L 994.0 741.0 L 30.0 741.0 Z M 30.0 48.0 "></path></clipPath><g clip-path="url(#clip0x7ff82f796aa0)"><image xlink:href="../../5AFCDCF3-4DC9-448B-ACCC-D8922AE4CE0C/assets/1E0376F862DA30D710D4F1E0694CAC10.png" width="1374.00" height="986.00" transform="matrix(0.70, 0.00, -0.00, -0.70, 31.0, 740.0)"></image></g></g></g><image xlink:href="../../122C7585-D7B3-4060-BEA7-78C51D89BD2A/assets/B024577D150257D611B83E76F03DC3A7.png" width="258.00" height="38.00" transform="matrix(1.00, 0.00, -0.00, -1.00, 72.0, 729.0)"></image><text xml:space="preserve" font-family="AvenirNext-Bold,Avenir Next" font-weight="bold" font-size="41.0" fill="#3D3B38" transform="matrix(1.00, 0.00, -0.00, -1.00, 75.0, 697.7)">/</text><text xml:space="preserve" font-family="AvenirNext-Bold,Avenir Next" font-weight="bold" font-size="41.0" fill="#3D3B38" transform="matrix(1.00, 0.00, -0.00, -1.00, 95.3, 697.7)">/</text><text xml:space="preserve" font-family="AvenirNext-Bold,Avenir Next" font-weight="bold" font-size="41.0" fill="#3D3B38" transform="matrix(1.00, 0.00, -0.00, -1.00, 115.6, 697.7)"> </text><text xml:space="preserve" font-family="AvenirNext-Bold,Avenir Next" font-weight="bold" font-size="41.0" fill="#3D3B38" transform="matrix(1.00, 0.00, -0.00, -1.00, 129.1, 697.7)">E</text><text xml:space="preserve" font-family="AvenirNext-Bold,Avenir Next" font-weight="bold" font-size="41.0" fill="#3D3B38" transform="matrix(1.00, 0.00, -0.00, -1.00, 157.3, 697.7)">X</text><text xml:space="preserve" font-family="AvenirNext-Bold,Avenir Next" font-weight="bold" font-size="41.0" fill="#3D3B38" transform="matrix(1.00, 0.00, -0.00, -1.00, 189.4, 697.7)">P</text><text xml:space="preserve" font-family="AvenirNext-Bold,Avenir Next" font-weight="bold" font-size="41.0" fill="#3D3B38" transform="matrix(1.00, 0.00, -0.00, -1.00, 218.9, 697.7)">R</text><text xml:space="preserve" font-family="AvenirNext-Bold,Avenir Next" font-weight="bold" font-size="41.0" fill="#3D3B38" transform="matrix(1.00, 0.00, -0.00, -1.00, 249.4, 697.7)">E</text><text xml:space="preserve" font-family="AvenirNext-Bold,Avenir Next" font-weight="bold" font-size="41.0" fill="#3D3B38" transform="matrix(1.00, 0.00, -0.00, -1.00, 277.5, 697.7)">S</text><text xml:space="preserve" font-family="AvenirNext-Bold,Avenir Next" font-weight="bold" font-size="41.0" fill="#3D3B38" transform="matrix(1.00, 0.00, -0.00, -1.00, 305.1, 697.7)">S</text><text xml:space="preserve" font-family="AvenirNext-Bold,Avenir Next" font-weight="bold" font-size="41.0" fill="#3D3B38" transform="matrix(1.00, 0.00, -0.00, -1.00, 332.6, 697.7)"> </text><image xlink:href="../../122C7585-D7B3-4060-BEA7-78C51D89BD2A/assets/D6E575AD7166CC4012D9D7AA6F8CFB2D.png" width="484.00" height="32.00" transform="matrix(1.00, 0.00, -0.00, -1.00, 76.0, 683.0)"></image><text xml:space="preserve" font-family="AvenirNext-Medium,Avenir Next" font-size="38.0" fill="#3D3B38" transform="matrix(1.00, 0.00, -0.00, -1.00, 75.0, 655.8)">M</text><text xml:space="preserve" font-family="AvenirNext-Medium,Avenir Next" font-size="38.0" fill="#3D3B38" transform="matrix(1.00, 0.00, -0.00, -1.00, 112.4, 655.8)">I</text><text xml:space="preserve" font-family="AvenirNext-Medium,Avenir Next" font-size="38.0" fill="#3D3B38" transform="matrix(1.00, 0.00, -0.00, -1.00, 125.7, 655.8)">X</text><text xml:space="preserve" font-family="AvenirNext-Medium,Avenir Next" font-size="38.0" fill="#3D3B38" transform="matrix(1.00, 0.00, -0.00, -1.00, 154.1, 655.8)">E</text><text xml:space="preserve" font-family="AvenirNext-Medium,Avenir Next" font-size="38.0" fill="#3D3B38" transform="matrix(1.00, 0.00, -0.00, -1.00, 180.0, 655.8)">D</text><text xml:space="preserve" font-family="AvenirNext-Medium,Avenir Next" font-size="38.0" fill="#3D3B38" transform="matrix(1.00, 0.00, -0.00, -1.00, 212.0, 655.8)"> </text><text xml:space="preserve" font-family="AvenirNext-Medium,Avenir Next" font-size="38.0" fill="#3D3B38" transform="matrix(1.00, 0.00, -0.00, -1.00, 224.5, 655.8)">M</text><text xml:space="preserve" font-family="AvenirNext-Medium,Avenir Next" font-size="38.0" fill="#3D3B38" transform="matrix(1.00, 0.00, -0.00, -1.00, 261.8, 655.8)">E</text><text xml:space="preserve" font-family="AvenirNext-Medium,Avenir Next" font-size="38.0" fill="#3D3B38" transform="matrix(1.00, 0.00, -0.00, -1.00, 287.7, 655.8)">D</text><text xml:space="preserve" font-family="AvenirNext-Medium,Avenir Next" font-size="38.0" fill="#3D3B38" transform="matrix(1.00, 0.00, -0.00, -1.00, 319.7, 655.8)">I</text><text xml:space="preserve" font-family="AvenirNext-Medium,Avenir Next" font-size="38.0" fill="#3D3B38" transform="matrix(1.00, 0.00, -0.00, -1.00, 333.0, 655.8)">A</text><text xml:space="preserve" font-family="AvenirNext-Medium,Avenir Next" font-size="38.0" fill="#3D3B38" transform="matrix(1.00, 0.00, -0.00, -1.00, 362.4, 655.8)"> </text><text xml:space="preserve" font-family="AvenirNext-Medium,Avenir Next" font-size="38.0" fill="#3D3B38" transform="matrix(1.00, 0.00, -0.00, -1.00, 374.9, 655.8)">M</text><text xml:space="preserve" font-family="AvenirNext-Medium,Avenir Next" font-size="38.0" fill="#3D3B38" transform="matrix(1.00, 0.00, -0.00, -1.00, 412.3, 655.8)">A</text><text xml:space="preserve" font-family="AvenirNext-Medium,Avenir Next" font-size="38.0" fill="#3D3B38" transform="matrix(1.00, 0.00, -0.00, -1.00, 442.3, 655.8)">P</text><text xml:space="preserve" font-family="AvenirNext-Medium,Avenir Next" font-size="38.0" fill="#3D3B38" transform="matrix(1.00, 0.00, -0.00, -1.00, 468.0, 655.8)"> </text><text xml:space="preserve" font-family="AvenirNext-Medium,Avenir Next" font-size="38.0" fill="#3D3B38" transform="matrix(1.00, 0.00, -0.00, -1.00, 479.9, 655.8)">A</text><text xml:space="preserve" font-family="AvenirNext-Medium,Avenir Next" font-size="38.0" fill="#3D3B38" transform="matrix(1.00, 0.00, -0.00, -1.00, 509.9, 655.8)">R</text><text xml:space="preserve" font-family="AvenirNext-Medium,Avenir Next" font-size="38.0" fill="#3D3B38" transform="matrix(1.00, 0.00, -0.00, -1.00, 535.8, 655.8)">T</text><g><clipPath id="clip0x7ff8318951f0"><path d="M 122.0 163.0 L 870.0 163.0 L 870.0 626.0 L 122.0 626.0 Z M 122.0 163.0 "></path></clipPath><g clip-path="url(#clip0x7ff8318951f0)"><path d="M 122.0 626.0 L 870.0 626.0 L 870.0 163.0 L 122.0 163.0 Z M 122.0 626.0 " fill="#FEFFFF" fill-opacity="0.00"></path></g></g><g><clipPath id="clip0x7ff8318963e0"><path d="M 122.0 163.0 L 870.0 163.0 L 870.0 626.0 L 122.0 626.0 Z M 122.0 163.0 "></path></clipPath><g clip-path="url(#clip0x7ff8318963e0)"><image xlink:href="../../122C7585-D7B3-4060-BEA7-78C51D89BD2A/assets/AF0F83F5255ADDA38A05D86F7DB5CB5D.png" width="542.00" height="336.00" transform="matrix(1.38, 0.00, -0.00, -1.38, 122.0, 626.0)"></image></g></g><image xlink:href="../../122C7585-D7B3-4060-BEA7-78C51D89BD2A/assets/FBE5C182079E147B38DA2F028C94BFCA.png" width="911.00" height="37.00" transform="matrix(1.00, 0.00, -0.00, -1.00, 40.0, 132.0)"></image><text xml:space="preserve" font-family="AvenirNext-Medium,Avenir Next" font-size="32.0" fill="#5D514B" transform="matrix(1.00, 0.00, -0.00, -1.00, 41.5, 106.7)">S</text><text xml:space="preserve" font-family="AvenirNext-Medium,Avenir Next" font-size="32.0" fill="#5D514B" transform="matrix(1.00, 0.00, -0.00, -1.00, 59.5, 106.7)">t</text><text xml:space="preserve" font-family="AvenirNext-Medium,Avenir Next" font-size="32.0" fill="#5D514B" transform="matrix(1.00, 0.00, -0.00, -1.00, 70.1, 106.7)">u</text><text xml:space="preserve" font-family="AvenirNext-Medium,Avenir Next" font-size="32.0" fill="#5D514B" transform="matrix(1.00, 0.00, -0.00, -1.00, 88.7, 106.7)">d</text><text xml:space="preserve" font-family="AvenirNext-Medium,Avenir Next" font-size="32.0" fill="#5D514B" transform="matrix(1.00, 0.00, -0.00, -1.00, 109.0, 106.7)">e</text><text xml:space="preserve" font-family="AvenirNext-Medium,Avenir Next" font-size="32.0" fill="#5D514B" transform="matrix(1.00, 0.00, -0.00, -1.00, 127.3, 106.7)">n</text><text xml:space="preserve" font-family="AvenirNext-Medium,Avenir Next" font-size="32.0" fill="#5D514B" transform="matrix(1.00, 0.00, -0.00, -1.00, 146.0, 106.7)">t</text><text xml:space="preserve" font-family="AvenirNext-Medium,Avenir Next" font-size="32.0" fill="#5D514B" transform="matrix(1.00, 0.00, -0.00, -1.00, 156.5, 106.7)">s</text><text xml:space="preserve" font-family="AvenirNext-Medium,Avenir Next" font-size="32.0" fill="#5D514B" transform="matrix(1.00, 0.00, -0.00, -1.00, 170.7, 106.7)"> </text><text xml:space="preserve" font-family="AvenirNext-Medium,Avenir Next" font-size="32.0" fill="#5D514B" transform="matrix(1.00, 0.00, -0.00, -1.00, 178.7, 106.7)">w</text><text xml:space="preserve" font-family="AvenirNext-Medium,Avenir Next" font-size="32.0" fill="#5D514B" transform="matrix(1.00, 0.00, -0.00, -1.00, 203.4, 106.7)">e</text><text xml:space="preserve" font-family="AvenirNext-Medium,Avenir Next" font-size="32.0" fill="#5D514B" transform="matrix(1.00, 0.00, -0.00, -1.00, 221.8, 106.7)">r</text><text xml:space="preserve" font-family="AvenirNext-Medium,Avenir Next" font-size="32.0" fill="#5D514B" transform="matrix(1.00, 0.00, -0.00, -1.00, 232.8, 106.7)">e</text><text xml:space="preserve" font-family="AvenirNext-Medium,Avenir Next" font-size="32.0" fill="#5D514B" transform="matrix(1.00, 0.00, -0.00, -1.00, 251.1, 106.7)"> </text><text xml:space="preserve" font-family="AvenirNext-Medium,Avenir Next" font-size="32.0" fill="#5D514B" transform="matrix(1.00, 0.00, -0.00, -1.00, 259.1, 106.7)">c</text><text xml:space="preserve" font-family="AvenirNext-Medium,Avenir Next" font-size="32.0" fill="#5D514B" transform="matrix(1.00, 0.00, -0.00, -1.00, 274.9, 106.7)">h</text><text xml:space="preserve" font-family="AvenirNext-Medium,Avenir Next" font-size="32.0" fill="#5D514B" transform="matrix(1.00, 0.00, -0.00, -1.00, 293.6, 106.7)">a</text><text xml:space="preserve" font-family="AvenirNext-Medium,Avenir Next" font-size="32.0" fill="#5D514B" transform="matrix(1.00, 0.00, -0.00, -1.00, 310.9, 106.7)">l</text><text xml:space="preserve" font-family="AvenirNext-Medium,Avenir Next" font-size="32.0" fill="#5D514B" transform="matrix(1.00, 0.00, -0.00, -1.00, 319.3, 106.7)">l</text><text xml:space="preserve" font-family="AvenirNext-Medium,Avenir Next" font-size="32.0" fill="#5D514B" transform="matrix(1.00, 0.00, -0.00, -1.00, 327.6, 106.7)">e</text><text xml:space="preserve" font-family="AvenirNext-Medium,Avenir Next" font-size="32.0" fill="#5D514B" transform="matrix(1.00, 0.00, -0.00, -1.00, 345.9, 106.7)">n</text><text xml:space="preserve" font-family="AvenirNext-Medium,Avenir Next" font-size="32.0" fill="#5D514B" transform="matrix(1.00, 0.00, -0.00, -1.00, 364.5, 106.7)">g</text><text xml:space="preserve" font-family="AvenirNext-Medium,Avenir Next" font-size="32.0" fill="#5D514B" transform="matrix(1.00, 0.00, -0.00, -1.00, 384.8, 106.7)">e</text><text xml:space="preserve" font-family="AvenirNext-Medium,Avenir Next" font-size="32.0" fill="#5D514B" transform="matrix(1.00, 0.00, -0.00, -1.00, 403.1, 106.7)">d</text><text xml:space="preserve" font-family="AvenirNext-Medium,Avenir Next" font-size="32.0" fill="#5D514B" transform="matrix(1.00, 0.00, -0.00, -1.00, 423.4, 106.7)"> </text><text xml:space="preserve" font-family="AvenirNext-Medium,Avenir Next" font-size="32.0" fill="#5D514B" transform="matrix(1.00, 0.00, -0.00, -1.00, 431.4, 106.7)">t</text><text xml:space="preserve" font-family="AvenirNext-Medium,Avenir Next" font-size="32.0" fill="#5D514B" transform="matrix(1.00, 0.00, -0.00, -1.00, 442.0, 106.7)">o</text><text xml:space="preserve" font-family="AvenirNext-Medium,Avenir Next" font-size="32.0" fill="#5D514B" transform="matrix(1.00, 0.00, -0.00, -1.00, 461.5, 106.7)"> </text><text xml:space="preserve" font-family="AvenirNext-Medium,Avenir Next" font-size="32.0" fill="#5D514B" transform="matrix(1.00, 0.00, -0.00, -1.00, 469.5, 106.7)">c</text><text xml:space="preserve" font-family="AvenirNext-Medium,Avenir Next" font-size="32.0" fill="#5D514B" transform="matrix(1.00, 0.00, -0.00, -1.00, 485.3, 106.7)">r</text><text xml:space="preserve" font-family="AvenirNext-Medium,Avenir Next" font-size="32.0" fill="#5D514B" transform="matrix(1.00, 0.00, -0.00, -1.00, 496.3, 106.7)">e</text><text xml:space="preserve" font-family="AvenirNext-Medium,Avenir Next" font-size="32.0" fill="#5D514B" transform="matrix(1.00, 0.00, -0.00, -1.00, 514.4, 106.7)">a</text><text xml:space="preserve" font-family="AvenirNext-Medium,Avenir Next" font-size="32.0" fill="#5D514B" transform="matrix(1.00, 0.00, -0.00, -1.00, 531.5, 106.7)">t</text><text xml:space="preserve" font-family="AvenirNext-Medium,Avenir Next" font-size="32.0" fill="#5D514B" transform="matrix(1.00, 0.00, -0.00, -1.00, 542.0, 106.7)">e</text><text xml:space="preserve" font-family="AvenirNext-Medium,Avenir Next" font-size="32.0" fill="#5D514B" transform="matrix(1.00, 0.00, -0.00, -1.00, 560.3, 106.7)"> </text><text xml:space="preserve" font-family="AvenirNext-Medium,Avenir Next" font-size="32.0" fill="#5D514B" transform="matrix(1.00, 0.00, -0.00, -1.00, 568.3, 106.7)">w</text><text xml:space="preserve" font-family="AvenirNext-Medium,Avenir Next" font-size="32.0" fill="#5D514B" transform="matrix(1.00, 0.00, -0.00, -1.00, 593.1, 106.7)">o</text><text xml:space="preserve" font-family="AvenirNext-Medium,Avenir Next" font-size="32.0" fill="#5D514B" transform="matrix(1.00, 0.00, -0.00, -1.00, 612.6, 106.7)">r</text><text xml:space="preserve" font-family="AvenirNext-Medium,Avenir Next" font-size="32.0" fill="#5D514B" transform="matrix(1.00, 0.00, -0.00, -1.00, 624.2, 106.7)">k</text><text xml:space="preserve" font-family="AvenirNext-Medium,Avenir Next" font-size="32.0" fill="#5D514B" transform="matrix(1.00, 0.00, -0.00, -1.00, 640.8, 106.7)">s</text><text xml:space="preserve" font-family="AvenirNext-Medium,Avenir Next" font-size="32.0" fill="#5D514B" transform="matrix(1.00, 0.00, -0.00, -1.00, 655.0, 106.7)"> </text><text xml:space="preserve" font-family="AvenirNext-Medium,Avenir Next" font-size="32.0" fill="#5D514B" transform="matrix(1.00, 0.00, -0.00, -1.00, 663.0, 106.7)">t</text><text xml:space="preserve" font-family="AvenirNext-Medium,Avenir Next" font-size="32.0" fill="#5D514B" transform="matrix(1.00, 0.00, -0.00, -1.00, 673.6, 106.7)">h</text><text xml:space="preserve" font-family="AvenirNext-Medium,Avenir Next" font-size="32.0" fill="#5D514B" transform="matrix(1.00, 0.00, -0.00, -1.00, 692.3, 106.7)">a</text><text xml:space="preserve" font-family="AvenirNext-Medium,Avenir Next" font-size="32.0" fill="#5D514B" transform="matrix(1.00, 0.00, -0.00, -1.00, 709.3, 106.7)">t</text><text xml:space="preserve" font-family="AvenirNext-Medium,Avenir Next" font-size="32.0" fill="#5D514B" transform="matrix(1.00, 0.00, -0.00, -1.00, 719.8, 106.7)"> </text><text xml:space="preserve" font-family="AvenirNext-Medium,Avenir Next" font-size="32.0" fill="#5D514B" transform="matrix(1.00, 0.00, -0.00, -1.00, 727.8, 106.7)">c</text><text xml:space="preserve" font-family="AvenirNext-Medium,Avenir Next" font-size="32.0" fill="#5D514B" transform="matrix(1.00, 0.00, -0.00, -1.00, 743.6, 106.7)">o</text><text xml:space="preserve" font-family="AvenirNext-Medium,Avenir Next" font-size="32.0" fill="#5D514B" transform="matrix(1.00, 0.00, -0.00, -1.00, 763.1, 106.7)">n</text><text xml:space="preserve" font-family="AvenirNext-Medium,Avenir Next" font-size="32.0" fill="#5D514B" transform="matrix(1.00, 0.00, -0.00, -1.00, 781.8, 106.7)">v</text><text xml:space="preserve" font-family="AvenirNext-Medium,Avenir Next" font-size="32.0" fill="#5D514B" transform="matrix(1.00, 0.00, -0.00, -1.00, 797.9, 106.7)">e</text><text xml:space="preserve" font-family="AvenirNext-Medium,Avenir Next" font-size="32.0" fill="#5D514B" transform="matrix(1.00, 0.00, -0.00, -1.00, 816.2, 106.7)">y</text><text xml:space="preserve" font-family="AvenirNext-Medium,Avenir Next" font-size="32.0" fill="#5D514B" transform="matrix(1.00, 0.00, -0.00, -1.00, 832.4, 106.7)"> </text><text xml:space="preserve" font-family="AvenirNext-Medium,Avenir Next" font-size="32.0" fill="#5D514B" transform="matrix(1.00, 0.00, -0.00, -1.00, 840.4, 106.7)">f</text><text xml:space="preserve" font-family="AvenirNext-Medium,Avenir Next" font-size="32.0" fill="#5D514B" transform="matrix(1.00, 0.00, -0.00, -1.00, 850.3, 106.7)">e</text><text xml:space="preserve" font-family="AvenirNext-Medium,Avenir Next" font-size="32.0" fill="#5D514B" transform="matrix(1.00, 0.00, -0.00, -1.00, 868.6, 106.7)">e</text><text xml:space="preserve" font-family="AvenirNext-Medium,Avenir Next" font-size="32.0" fill="#5D514B" transform="matrix(1.00, 0.00, -0.00, -1.00, 886.9, 106.7)">l</text><text xml:space="preserve" font-family="AvenirNext-Medium,Avenir Next" font-size="32.0" fill="#5D514B" transform="matrix(1.00, 0.00, -0.00, -1.00, 895.3, 106.7)">i</text><text xml:space="preserve" font-family="AvenirNext-Medium,Avenir Next" font-size="32.0" fill="#5D514B" transform="matrix(1.00, 0.00, -0.00, -1.00, 903.6, 106.7)">n</text><text xml:space="preserve" font-family="AvenirNext-Medium,Avenir Next" font-size="32.0" fill="#5D514B" transform="matrix(1.00, 0.00, -0.00, -1.00, 922.2, 106.7)">g</text><text xml:space="preserve" font-family="AvenirNext-Medium,Avenir Next" font-size="32.0" fill="#5D514B" transform="matrix(1.00, 0.00, -0.00, -1.00, 942.4, 106.7)">,</text><text xml:space="preserve" font-family="AvenirNext-Medium,Avenir Next" font-size="32.0" fill="#5D514B" transform="matrix(1.00, 0.00, -0.00, -1.00, 949.8, 106.7)"> </text><image xlink:href="../../122C7585-D7B3-4060-BEA7-78C51D89BD2A/assets/E0D3F6F3D06EAC7C8054DB798E9ED492.png" width="439.00" height="36.00" transform="matrix(1.00, 0.00, -0.00, -1.00, 40.0, 87.0)"></image><text xml:space="preserve" font-family="AvenirNext-Medium,Avenir Next" font-size="32.0" fill="#5D514B" transform="matrix(1.00, 0.00, -0.00, -1.00, 41.5, 62.7)">a</text><text xml:space="preserve" font-family="AvenirNext-Medium,Avenir Next" font-size="32.0" fill="#5D514B" transform="matrix(1.00, 0.00, -0.00, -1.00, 58.9, 62.7)">n</text><text xml:space="preserve" font-family="AvenirNext-Medium,Avenir Next" font-size="32.0" fill="#5D514B" transform="matrix(1.00, 0.00, -0.00, -1.00, 77.5, 62.7)"> </text><text xml:space="preserve" font-family="AvenirNext-Medium,Avenir Next" font-size="32.0" fill="#5D514B" transform="matrix(1.00, 0.00, -0.00, -1.00, 85.5, 62.7)">i</text><text xml:space="preserve" font-family="AvenirNext-Medium,Avenir Next" font-size="32.0" fill="#5D514B" transform="matrix(1.00, 0.00, -0.00, -1.00, 93.8, 62.7)">d</text><text xml:space="preserve" font-family="AvenirNext-Medium,Avenir Next" font-size="32.0" fill="#5D514B" transform="matrix(1.00, 0.00, -0.00, -1.00, 114.1, 62.7)">e</text><text xml:space="preserve" font-family="AvenirNext-Medium,Avenir Next" font-size="32.0" fill="#5D514B" transform="matrix(1.00, 0.00, -0.00, -1.00, 132.2, 62.7)">a</text><text xml:space="preserve" font-family="AvenirNext-Medium,Avenir Next" font-size="32.0" fill="#5D514B" transform="matrix(1.00, 0.00, -0.00, -1.00, 149.6, 62.7)">,</text><text xml:space="preserve" font-family="AvenirNext-Medium,Avenir Next" font-size="32.0" fill="#5D514B" transform="matrix(1.00, 0.00, -0.00, -1.00, 156.9, 62.7)"> </text><text xml:space="preserve" font-family="AvenirNext-Medium,Avenir Next" font-size="32.0" fill="#5D514B" transform="matrix(1.00, 0.00, -0.00, -1.00, 164.9, 62.7)">o</text><text xml:space="preserve" font-family="AvenirNext-Medium,Avenir Next" font-size="32.0" fill="#5D514B" transform="matrix(1.00, 0.00, -0.00, -1.00, 184.5, 62.7)">r</text><text xml:space="preserve" font-family="AvenirNext-Medium,Avenir Next" font-size="32.0" fill="#5D514B" transform="matrix(1.00, 0.00, -0.00, -1.00, 196.0, 62.7)"> </text><text xml:space="preserve" font-family="AvenirNext-Medium,Avenir Next" font-size="32.0" fill="#5D514B" transform="matrix(1.00, 0.00, -0.00, -1.00, 204.0, 62.7)">p</text><text xml:space="preserve" font-family="AvenirNext-Medium,Avenir Next" font-size="32.0" fill="#5D514B" transform="matrix(1.00, 0.00, -0.00, -1.00, 224.3, 62.7)">e</text><text xml:space="preserve" font-family="AvenirNext-Medium,Avenir Next" font-size="32.0" fill="#5D514B" transform="matrix(1.00, 0.00, -0.00, -1.00, 242.7, 62.7)">r</text><text xml:space="preserve" font-family="AvenirNext-Medium,Avenir Next" font-size="32.0" fill="#5D514B" transform="matrix(1.00, 0.00, -0.00, -1.00, 254.2, 62.7)">s</text><text xml:space="preserve" font-family="AvenirNext-Medium,Avenir Next" font-size="32.0" fill="#5D514B" transform="matrix(1.00, 0.00, -0.00, -1.00, 268.5, 62.7)">o</text><text xml:space="preserve" font-family="AvenirNext-Medium,Avenir Next" font-size="32.0" fill="#5D514B" transform="matrix(1.00, 0.00, -0.00, -1.00, 288.0, 62.7)">n</text><text xml:space="preserve" font-family="AvenirNext-Medium,Avenir Next" font-size="32.0" fill="#5D514B" transform="matrix(1.00, 0.00, -0.00, -1.00, 306.6, 62.7)">a</text><text xml:space="preserve" font-family="AvenirNext-Medium,Avenir Next" font-size="32.0" fill="#5D514B" transform="matrix(1.00, 0.00, -0.00, -1.00, 323.9, 62.7)">l</text><text xml:space="preserve" font-family="AvenirNext-Medium,Avenir Next" font-size="32.0" fill="#5D514B" transform="matrix(1.00, 0.00, -0.00, -1.00, 332.3, 62.7)"> </text><text xml:space="preserve" font-family="AvenirNext-Medium,Avenir Next" font-size="32.0" fill="#5D514B" transform="matrix(1.00, 0.00, -0.00, -1.00, 340.3, 62.7)">m</text><text xml:space="preserve" font-family="AvenirNext-Medium,Avenir Next" font-size="32.0" fill="#5D514B" transform="matrix(1.00, 0.00, -0.00, -1.00, 368.6, 62.7)">e</text><text xml:space="preserve" font-family="AvenirNext-Medium,Avenir Next" font-size="32.0" fill="#5D514B" transform="matrix(1.00, 0.00, -0.00, -1.00, 386.8, 62.7)">a</text><text xml:space="preserve" font-family="AvenirNext-Medium,Avenir Next" font-size="32.0" fill="#5D514B" transform="matrix(1.00, 0.00, -0.00, -1.00, 404.1, 62.7)">n</text><text xml:space="preserve" font-family="AvenirNext-Medium,Avenir Next" font-size="32.0" fill="#5D514B" transform="matrix(1.00, 0.00, -0.00, -1.00, 422.8, 62.7)">i</text><text xml:space="preserve" font-family="AvenirNext-Medium,Avenir Next" font-size="32.0" fill="#5D514B" transform="matrix(1.00, 0.00, -0.00, -1.00, 431.0, 62.7)">n</text><text xml:space="preserve" font-family="AvenirNext-Medium,Avenir Next" font-size="32.0" fill="#5D514B" transform="matrix(1.00, 0.00, -0.00, -1.00, 449.7, 62.7)">g</text><text xml:space="preserve" font-family="AvenirNext-Medium,Avenir Next" font-size="32.0" fill="#5D514B" transform="matrix(1.00, 0.00, -0.00, -1.00, 469.9, 62.7)">.</text><image xlink:href="../../122C7585-D7B3-4060-BEA7-78C51D89BD2A/assets/966C88B68037EF6CD7D09C0CC342084E.png" width="160.00" height="17.00" transform="matrix(1.00, 0.00, -0.00, -1.00, 817.0, 74.0)"></image><text xml:space="preserve" font-family="AvenirNext-MediumItalic,Avenir Next" font-style="italic" font-size="15.0" fill="#5D514B" transform="matrix(1.00, 0.00, -0.00, -1.00, 818.6, 62.2)">P</text><text xml:space="preserve" font-family="AvenirNext-MediumItalic,Avenir Next" font-style="italic" font-size="15.0" fill="#5D514B" transform="matrix(1.00, 0.00, -0.00, -1.00, 827.5, 62.2)">h</text><text xml:space="preserve" font-family="AvenirNext-MediumItalic,Avenir Next" font-style="italic" font-size="15.0" fill="#5D514B" transform="matrix(1.00, 0.00, -0.00, -1.00, 836.2, 62.2)">o</text><text xml:space="preserve" font-family="AvenirNext-MediumItalic,Avenir Next" font-style="italic" font-size="15.0" fill="#5D514B" transform="matrix(1.00, 0.00, -0.00, -1.00, 845.2, 62.2)">t</text><text xml:space="preserve" font-family="AvenirNext-MediumItalic,Avenir Next" font-style="italic" font-size="15.0" fill="#5D514B" transform="matrix(1.00, 0.00, -0.00, -1.00, 850.1, 62.2)">o</text><text xml:space="preserve" font-family="AvenirNext-MediumItalic,Avenir Next" font-style="italic" font-size="15.0" fill="#5D514B" transform="matrix(1.00, 0.00, -0.00, -1.00, 859.1, 62.2)">:</text><text xml:space="preserve" font-family="AvenirNext-MediumItalic,Avenir Next" font-style="italic" font-size="15.0" fill="#5D514B" transform="matrix(1.00, 0.00, -0.00, -1.00, 863.6, 62.2)"> </text><text xml:space="preserve" font-family="AvenirNext-MediumItalic,Avenir Next" font-style="italic" font-size="15.0" fill="#5D514B" transform="matrix(1.00, 0.00, -0.00, -1.00, 867.0, 62.2)">A</text><text xml:space="preserve" font-family="AvenirNext-MediumItalic,Avenir Next" font-style="italic" font-size="15.0" fill="#5D514B" transform="matrix(1.00, 0.00, -0.00, -1.00, 877.2, 62.2)">i</text><text xml:space="preserve" font-family="AvenirNext-MediumItalic,Avenir Next" font-style="italic" font-size="15.0" fill="#5D514B" transform="matrix(1.00, 0.00, -0.00, -1.00, 881.1, 62.2)">m</text><text xml:space="preserve" font-family="AvenirNext-MediumItalic,Avenir Next" font-style="italic" font-size="15.0" fill="#5D514B" transform="matrix(1.00, 0.00, -0.00, -1.00, 894.4, 62.2)">e</text><text xml:space="preserve" font-family="AvenirNext-MediumItalic,Avenir Next" font-style="italic" font-size="15.0" fill="#5D514B" transform="matrix(1.00, 0.00, -0.00, -1.00, 902.9, 62.2)">e</text><text xml:space="preserve" font-family="AvenirNext-MediumItalic,Avenir Next" font-style="italic" font-size="15.0" fill="#5D514B" transform="matrix(1.00, 0.00, -0.00, -1.00, 911.3, 62.2)"> </text><text xml:space="preserve" font-family="AvenirNext-MediumItalic,Avenir Next" font-style="italic" font-size="15.0" fill="#5D514B" transform="matrix(1.00, 0.00, -0.00, -1.00, 915.1, 62.2)">C</text><text xml:space="preserve" font-family="AvenirNext-MediumItalic,Avenir Next" font-style="italic" font-size="15.0" fill="#5D514B" transform="matrix(1.00, 0.00, -0.00, -1.00, 925.3, 62.2)">a</text><text xml:space="preserve" font-family="AvenirNext-MediumItalic,Avenir Next" font-style="italic" font-size="15.0" fill="#5D514B" transform="matrix(1.00, 0.00, -0.00, -1.00, 933.4, 62.2)">r</text><text xml:space="preserve" font-family="AvenirNext-MediumItalic,Avenir Next" font-style="italic" font-size="15.0" fill="#5D514B" transform="matrix(1.00, 0.00, -0.00, -1.00, 938.5, 62.2)">m</text><text xml:space="preserve" font-family="AvenirNext-MediumItalic,Avenir Next" font-style="italic" font-size="15.0" fill="#5D514B" transform="matrix(1.00, 0.00, -0.00, -1.00, 951.8, 62.2)">e</text><text xml:space="preserve" font-family="AvenirNext-MediumItalic,Avenir Next" font-style="italic" font-size="15.0" fill="#5D514B" transform="matrix(1.00, 0.00, -0.00, -1.00, 960.3, 62.2)">l</text><text xml:space="preserve" font-family="AvenirNext-MediumItalic,Avenir Next" font-style="italic" font-size="15.0" fill="#5D514B" transform="matrix(1.00, 0.00, -0.00, -1.00, 964.2, 62.2)">l</text><text xml:space="preserve" font-family="AvenirNext-MediumItalic,Avenir Next" font-style="italic" font-size="15.0" fill="#5D514B" transform="matrix(1.00, 0.00, -0.00, -1.00, 968.1, 62.2)">a</text></g></svg>