<?xml version="1.0" encoding="UTF-8" standalone="no"?><svg xmlns="http://www.w3.org/2000/svg" xmlns:xlink="http://www.w3.org/1999/xlink" clip-rule="evenodd" stroke-miterlimit="10" viewBox="0 0 1024 768"><desc>SVG generated by Keynote</desc><defs></defs><g transform="matrix(1.00, 0.00, -0.00, -1.00, 0.0, 768.0)"><g><clipPath id="clip0x7ff82f7d2310"><path d="M 0.0 768.0 L 1024.0 768.0 L 1024.0 0.0 L 0.0 0.0 Z M 0.0 768.0 "></path></clipPath><g clip-path="url(#clip0x7ff82f7d2310)"><image xlink:href="../../5AFCDCF3-4DC9-448B-ACCC-D8922AE4CE0C/assets/B5EE15FD4291743AF7496326DC17A466.jpeg" width="2048.00" height="1536.00" transform="matrix(0.50, 0.00, -0.00, -0.50, 0.0, 768.0)"></image></g></g><g opacity="0.45"><g><clipPath id="clip0x7ff8318c0e50"><path d="M 30.0 48.0 L 994.0 48.0 L 994.0 741.0 L 30.0 741.0 Z M 30.0 48.0 "></path></clipPath><g clip-path="url(#clip0x7ff8318c0e50)"><image xlink:href="../../5AFCDCF3-4DC9-448B-ACCC-D8922AE4CE0C/assets/1E0376F862DA30D710D4F1E0694CAC10.png" width="1374.00" height="986.00" transform="matrix(0.70, 0.00, -0.00, -0.70, 31.0, 740.0)"></image></g></g></g><image xlink:href="../../90D3FC96-60B4-4630-86B8-DE12D1247934/assets/85359B53FC6E8D0743339C138CE92A60.png" width="720.00" height="39.00" transform="matrix(1.00, 0.00, -0.00, -1.00, 72.0, 719.0)"></image><text xml:space="preserve" font-family="AvenirNext-Bold,Avenir Next" font-weight="bold" font-size="41.0" fill="#3D3B38" transform="matrix(1.00, 0.00, -0.00, -1.00, 75.0, 687.0)">/</text><text xml:space="preserve" font-family="AvenirNext-Bold,Avenir Next" font-weight="bold" font-size="41.0" fill="#3D3B38" transform="matrix(1.00, 0.00, -0.00, -1.00, 95.3, 687.0)">/</text><text xml:space="preserve" font-family="AvenirNext-Bold,Avenir Next" font-weight="bold" font-size="41.0" fill="#3D3B38" transform="matrix(1.00, 0.00, -0.00, -1.00, 115.6, 687.0)">O</text><text xml:space="preserve" font-family="AvenirNext-Bold,Avenir Next" font-weight="bold" font-size="41.0" fill="#3D3B38" transform="matrix(1.00, 0.00, -0.00, -1.00, 153.8, 687.0)">B</text><text xml:space="preserve" font-family="AvenirNext-Bold,Avenir Next" font-weight="bold" font-size="41.0" fill="#3D3B38" transform="matrix(1.00, 0.00, -0.00, -1.00, 184.3, 687.0)">S</text><text xml:space="preserve" font-family="AvenirNext-Bold,Avenir Next" font-weight="bold" font-size="41.0" fill="#3D3B38" transform="matrix(1.00, 0.00, -0.00, -1.00, 211.8, 687.0)">E</text><text xml:space="preserve" font-family="AvenirNext-Bold,Avenir Next" font-weight="bold" font-size="41.0" fill="#3D3B38" transform="matrix(1.00, 0.00, -0.00, -1.00, 240.0, 687.0)">R</text><text xml:space="preserve" font-family="AvenirNext-Bold,Avenir Next" font-weight="bold" font-size="41.0" fill="#3D3B38" transform="matrix(1.00, 0.00, -0.00, -1.00, 270.0, 687.0)">V</text><text xml:space="preserve" font-family="AvenirNext-Bold,Avenir Next" font-weight="bold" font-size="41.0" fill="#3D3B38" transform="matrix(1.00, 0.00, -0.00, -1.00, 301.2, 687.0)">E</text><text xml:space="preserve" font-family="AvenirNext-Bold,Avenir Next" font-weight="bold" font-size="41.0" fill="#3D3B38" transform="matrix(1.00, 0.00, -0.00, -1.00, 329.4, 687.0)">/</text><text xml:space="preserve" font-family="AvenirNext-Bold,Avenir Next" font-weight="bold" font-size="41.0" fill="#3D3B38" transform="matrix(1.00, 0.00, -0.00, -1.00, 349.7, 687.0)">R</text><text xml:space="preserve" font-family="AvenirNext-Bold,Avenir Next" font-weight="bold" font-size="41.0" fill="#3D3B38" transform="matrix(1.00, 0.00, -0.00, -1.00, 380.1, 687.0)">E</text><text xml:space="preserve" font-family="AvenirNext-Bold,Avenir Next" font-weight="bold" font-size="41.0" fill="#3D3B38" transform="matrix(1.00, 0.00, -0.00, -1.00, 408.3, 687.0)">F</text><text xml:space="preserve" font-family="AvenirNext-Bold,Avenir Next" font-weight="bold" font-size="41.0" fill="#3D3B38" transform="matrix(1.00, 0.00, -0.00, -1.00, 435.2, 687.0)">L</text><text xml:space="preserve" font-family="AvenirNext-Bold,Avenir Next" font-weight="bold" font-size="41.0" fill="#3D3B38" transform="matrix(1.00, 0.00, -0.00, -1.00, 460.0, 687.0)">E</text><text xml:space="preserve" font-family="AvenirNext-Bold,Avenir Next" font-weight="bold" font-size="41.0" fill="#3D3B38" transform="matrix(1.00, 0.00, -0.00, -1.00, 488.2, 687.0)">C</text><text xml:space="preserve" font-family="AvenirNext-Bold,Avenir Next" font-weight="bold" font-size="41.0" fill="#3D3B38" transform="matrix(1.00, 0.00, -0.00, -1.00, 519.8, 687.0)">T</text><text xml:space="preserve" font-family="AvenirNext-Bold,Avenir Next" font-weight="bold" font-size="41.0" fill="#3D3B38" transform="matrix(1.00, 0.00, -0.00, -1.00, 546.9, 687.0)">/</text><text xml:space="preserve" font-family="AvenirNext-Bold,Avenir Next" font-weight="bold" font-size="41.0" fill="#3D3B38" transform="matrix(1.00, 0.00, -0.00, -1.00, 567.2, 687.0)">E</text><text xml:space="preserve" font-family="AvenirNext-Bold,Avenir Next" font-weight="bold" font-size="41.0" fill="#3D3B38" transform="matrix(1.00, 0.00, -0.00, -1.00, 595.3, 687.0)">N</text><text xml:space="preserve" font-family="AvenirNext-Bold,Avenir Next" font-weight="bold" font-size="41.0" fill="#3D3B38" transform="matrix(1.00, 0.00, -0.00, -1.00, 631.0, 687.0)">V</text><text xml:space="preserve" font-family="AvenirNext-Bold,Avenir Next" font-weight="bold" font-size="41.0" fill="#3D3B38" transform="matrix(1.00, 0.00, -0.00, -1.00, 662.2, 687.0)">I</text><text xml:space="preserve" font-family="AvenirNext-Bold,Avenir Next" font-weight="bold" font-size="41.0" fill="#3D3B38" transform="matrix(1.00, 0.00, -0.00, -1.00, 678.6, 687.0)">S</text><text xml:space="preserve" font-family="AvenirNext-Bold,Avenir Next" font-weight="bold" font-size="41.0" fill="#3D3B38" transform="matrix(1.00, 0.00, -0.00, -1.00, 706.1, 687.0)">I</text><text xml:space="preserve" font-family="AvenirNext-Bold,Avenir Next" font-weight="bold" font-size="41.0" fill="#3D3B38" transform="matrix(1.00, 0.00, -0.00, -1.00, 722.4, 687.0)">O</text><text xml:space="preserve" font-family="AvenirNext-Bold,Avenir Next" font-weight="bold" font-size="41.0" fill="#3D3B38" transform="matrix(1.00, 0.00, -0.00, -1.00, 760.6, 687.0)">N</text><g><clipPath id="clip0x7ff8318cf660"><path d="M 52.0 599.0 L 972.0 599.0 L 972.0 65.0 L 52.0 65.0 Z M 52.2 599.3 "></path></clipPath><g clip-path="url(#clip0x7ff8318cf660)"><image xlink:href="../../90D3FC96-60B4-4630-86B8-DE12D1247934/assets/08C3F4B7F9A48A3F233882197A06891C.jpeg" width="960.00" height="1226.00" transform="matrix(0.96, 0.00, -0.00, -0.96, 52.0, 599.0)"></image></g></g></g></svg>