<?xml version="1.0" encoding="UTF-8" standalone="no"?><svg xmlns="http://www.w3.org/2000/svg" xmlns:xlink="http://www.w3.org/1999/xlink" clip-rule="evenodd" stroke-miterlimit="10" viewBox="0 0 1024 768"><desc>SVG generated by Keynote</desc><defs></defs><g transform="matrix(1.00, 0.00, -0.00, -1.00, 0.0, 768.0)"><g><clipPath id="clip0x7ff8318d0d00"><path d="M 0.0 768.0 L 1024.0 768.0 L 1024.0 0.0 L 0.0 0.0 Z M 0.0 768.0 "></path></clipPath><g clip-path="url(#clip0x7ff8318d0d00)"><image xlink:href="../../5AFCDCF3-4DC9-448B-ACCC-D8922AE4CE0C/assets/B5EE15FD4291743AF7496326DC17A466.jpeg" width="2048.00" height="1536.00" transform="matrix(0.50, 0.00, -0.00, -0.50, 0.0, 768.0)"></image></g></g><g opacity="0.45"><g><clipPath id="clip0x7ff82f7d59d0"><path d="M 30.0 48.0 L 994.0 48.0 L 994.0 741.0 L 30.0 741.0 Z M 30.0 48.0 "></path></clipPath><g clip-path="url(#clip0x7ff82f7d59d0)"><image xlink:href="../../5AFCDCF3-4DC9-448B-ACCC-D8922AE4CE0C/assets/1E0376F862DA30D710D4F1E0694CAC10.png" width="1374.00" height="986.00" transform="matrix(0.70, 0.00, -0.00, -0.70, 31.0, 740.0)"></image></g></g></g><image xlink:href="9C9C01E060F27D375A1012B089D11CEA.png" width="685.00" height="36.00" transform="matrix(1.00, 0.00, -0.00, -1.00, 44.0, 716.0)"></image><text xml:space="preserve" font-family="AvenirNext-Bold,Avenir Next" font-weight="bold" font-size="39.0" fill="#3D3B38" transform="matrix(1.00, 0.00, -0.00, -1.00, 46.7, 686.3)">/</text><text xml:space="preserve" font-family="AvenirNext-Bold,Avenir Next" font-weight="bold" font-size="39.0" fill="#3D3B38" transform="matrix(1.00, 0.00, -0.00, -1.00, 66.0, 686.3)">/</text><text xml:space="preserve" font-family="AvenirNext-Bold,Avenir Next" font-weight="bold" font-size="39.0" fill="#3D3B38" transform="matrix(1.00, 0.00, -0.00, -1.00, 85.3, 686.3)">O</text><text xml:space="preserve" font-family="AvenirNext-Bold,Avenir Next" font-weight="bold" font-size="39.0" fill="#3D3B38" transform="matrix(1.00, 0.00, -0.00, -1.00, 121.6, 686.3)">B</text><text xml:space="preserve" font-family="AvenirNext-Bold,Avenir Next" font-weight="bold" font-size="39.0" fill="#3D3B38" transform="matrix(1.00, 0.00, -0.00, -1.00, 150.6, 686.3)">S</text><text xml:space="preserve" font-family="AvenirNext-Bold,Avenir Next" font-weight="bold" font-size="39.0" fill="#3D3B38" transform="matrix(1.00, 0.00, -0.00, -1.00, 176.8, 686.3)">E</text><text xml:space="preserve" font-family="AvenirNext-Bold,Avenir Next" font-weight="bold" font-size="39.0" fill="#3D3B38" transform="matrix(1.00, 0.00, -0.00, -1.00, 203.6, 686.3)">R</text><text xml:space="preserve" font-family="AvenirNext-Bold,Avenir Next" font-weight="bold" font-size="39.0" fill="#3D3B38" transform="matrix(1.00, 0.00, -0.00, -1.00, 232.1, 686.3)">V</text><text xml:space="preserve" font-family="AvenirNext-Bold,Avenir Next" font-weight="bold" font-size="39.0" fill="#3D3B38" transform="matrix(1.00, 0.00, -0.00, -1.00, 261.8, 686.3)">E</text><text xml:space="preserve" font-family="AvenirNext-Bold,Avenir Next" font-weight="bold" font-size="39.0" fill="#3D3B38" transform="matrix(1.00, 0.00, -0.00, -1.00, 288.6, 686.3)">/</text><text xml:space="preserve" font-family="AvenirNext-Bold,Avenir Next" font-weight="bold" font-size="39.0" fill="#3D3B38" transform="matrix(1.00, 0.00, -0.00, -1.00, 307.9, 686.3)">R</text><text xml:space="preserve" font-family="AvenirNext-Bold,Avenir Next" font-weight="bold" font-size="39.0" fill="#3D3B38" transform="matrix(1.00, 0.00, -0.00, -1.00, 336.9, 686.3)">E</text><text xml:space="preserve" font-family="AvenirNext-Bold,Avenir Next" font-weight="bold" font-size="39.0" fill="#3D3B38" transform="matrix(1.00, 0.00, -0.00, -1.00, 363.7, 686.3)">F</text><text xml:space="preserve" font-family="AvenirNext-Bold,Avenir Next" font-weight="bold" font-size="39.0" fill="#3D3B38" transform="matrix(1.00, 0.00, -0.00, -1.00, 389.3, 686.3)">L</text><text xml:space="preserve" font-family="AvenirNext-Bold,Avenir Next" font-weight="bold" font-size="39.0" fill="#3D3B38" transform="matrix(1.00, 0.00, -0.00, -1.00, 412.9, 686.3)">E</text><text xml:space="preserve" font-family="AvenirNext-Bold,Avenir Next" font-weight="bold" font-size="39.0" fill="#3D3B38" transform="matrix(1.00, 0.00, -0.00, -1.00, 439.7, 686.3)">C</text><text xml:space="preserve" font-family="AvenirNext-Bold,Avenir Next" font-weight="bold" font-size="39.0" fill="#3D3B38" transform="matrix(1.00, 0.00, -0.00, -1.00, 469.7, 686.3)">T</text><text xml:space="preserve" font-family="AvenirNext-Bold,Avenir Next" font-weight="bold" font-size="39.0" fill="#3D3B38" transform="matrix(1.00, 0.00, -0.00, -1.00, 495.5, 686.3)">/</text><text xml:space="preserve" font-family="AvenirNext-Bold,Avenir Next" font-weight="bold" font-size="39.0" fill="#3D3B38" transform="matrix(1.00, 0.00, -0.00, -1.00, 514.8, 686.3)">E</text><text xml:space="preserve" font-family="AvenirNext-Bold,Avenir Next" font-weight="bold" font-size="39.0" fill="#3D3B38" transform="matrix(1.00, 0.00, -0.00, -1.00, 541.6, 686.3)">N</text><text xml:space="preserve" font-family="AvenirNext-Bold,Avenir Next" font-weight="bold" font-size="39.0" fill="#3D3B38" transform="matrix(1.00, 0.00, -0.00, -1.00, 575.5, 686.3)">V</text><text xml:space="preserve" font-family="AvenirNext-Bold,Avenir Next" font-weight="bold" font-size="39.0" fill="#3D3B38" transform="matrix(1.00, 0.00, -0.00, -1.00, 605.3, 686.3)">I</text><text xml:space="preserve" font-family="AvenirNext-Bold,Avenir Next" font-weight="bold" font-size="39.0" fill="#3D3B38" transform="matrix(1.00, 0.00, -0.00, -1.00, 620.8, 686.3)">S</text><text xml:space="preserve" font-family="AvenirNext-Bold,Avenir Next" font-weight="bold" font-size="39.0" fill="#3D3B38" transform="matrix(1.00, 0.00, -0.00, -1.00, 646.9, 686.3)">I</text><text xml:space="preserve" font-family="AvenirNext-Bold,Avenir Next" font-weight="bold" font-size="39.0" fill="#3D3B38" transform="matrix(1.00, 0.00, -0.00, -1.00, 662.5, 686.3)">O</text><text xml:space="preserve" font-family="AvenirNext-Bold,Avenir Next" font-weight="bold" font-size="39.0" fill="#3D3B38" transform="matrix(1.00, 0.00, -0.00, -1.00, 698.8, 686.3)">N</text><g><clipPath id="clip0x7ff82f7e2420"><path d="M 65.0 664.0 L 913.0 664.0 L 913.0 70.0 L 65.0 70.0 Z M 65.1 663.9 "></path></clipPath><g clip-path="url(#clip0x7ff82f7e2420)"><image xlink:href="../../90D3FC96-60B4-4630-86B8-DE12D1247934/assets/08C3F4B7F9A48A3F233882197A06891C.jpeg" width="960.00" height="1226.00" transform="matrix(0.88, 0.00, -0.00, -0.88, 52.0, 1264.0)"></image></g></g><g><clipPath id="clip0x7ff82f7e3690"><path d="M 177.0 212.0 L 871.0 212.0 L 871.0 39.0 L 177.0 39.0 Z M 177.3 212.0 "></path></clipPath><g clip-path="url(#clip0x7ff82f7e3690)"><image xlink:href="2695474D01097B05513C2FD9FE5C7492.jpeg" width="1015.00" height="297.00" transform="matrix(0.68, 0.00, -0.00, -0.68, 177.0, 212.0)"></image></g></g></g></svg>