<?xml version="1.0" encoding="UTF-8" standalone="no"?><svg xmlns="http://www.w3.org/2000/svg" xmlns:xlink="http://www.w3.org/1999/xlink" clip-rule="evenodd" stroke-miterlimit="10" viewBox="0 0 1024 768"><desc>SVG generated by Keynote</desc><defs></defs><g transform="matrix(1.00, 0.00, -0.00, -1.00, 0.0, 768.0)"><g><clipPath id="clip0x7ff82dff4620"><path d="M 0.0 768.0 L 1024.0 768.0 L 1024.0 0.0 L 0.0 0.0 Z M 0.0 768.0 "></path></clipPath><g clip-path="url(#clip0x7ff82dff4620)"><image xlink:href="B5EE15FD4291743AF7496326DC17A466.jpeg" width="2048.00" height="1536.00" transform="matrix(0.50, 0.00, -0.00, -0.50, 0.0, 768.0)"></image></g></g><g opacity="0.45"><g><clipPath id="clip0x7ff82f0db860"><path d="M 30.0 48.0 L 994.0 48.0 L 994.0 741.0 L 30.0 741.0 Z M 30.0 48.0 "></path></clipPath><g clip-path="url(#clip0x7ff82f0db860)"><image xlink:href="1E0376F862DA30D710D4F1E0694CAC10.png" width="1374.00" height="986.00" transform="matrix(0.70, 0.00, -0.00, -0.70, 31.0, 740.0)"></image></g></g></g><image xlink:href="8DED5045D53BA6577ECFD279956CCAB2.png" width="788.00" height="29.00" transform="matrix(1.00, 0.00, -0.00, -1.00, 75.0, 186.0)"></image><text xml:space="preserve" font-family="AvenirNext-Bold,Avenir Next" font-weight="bold" font-size="31.2" fill="#3D3B38" transform="matrix(1.00, 0.00, -0.00, -1.00, 75.0, 162.4)">H</text><text xml:space="preserve" font-family="AvenirNext-Bold,Avenir Next" font-weight="bold" font-size="31.2" fill="#3D3B38" transform="matrix(1.00, 0.00, -0.00, -1.00, 101.3, 162.4)">O</text><text xml:space="preserve" font-family="AvenirNext-Bold,Avenir Next" font-weight="bold" font-size="31.2" fill="#3D3B38" transform="matrix(1.00, 0.00, -0.00, -1.00, 130.4, 162.4)">W</text><text xml:space="preserve" font-family="AvenirNext-Bold,Avenir Next" font-weight="bold" font-size="31.2" fill="#3D3B38" transform="matrix(1.00, 0.00, -0.00, -1.00, 164.5, 162.4)"> </text><text xml:space="preserve" font-family="AvenirNext-Bold,Avenir Next" font-weight="bold" font-size="31.2" fill="#3D3B38" transform="matrix(1.00, 0.00, -0.00, -1.00, 174.8, 162.4)">C</text><text xml:space="preserve" font-family="AvenirNext-Bold,Avenir Next" font-weight="bold" font-size="31.2" fill="#3D3B38" transform="matrix(1.00, 0.00, -0.00, -1.00, 198.6, 162.4)">A</text><text xml:space="preserve" font-family="AvenirNext-Bold,Avenir Next" font-weight="bold" font-size="31.2" fill="#3D3B38" transform="matrix(1.00, 0.00, -0.00, -1.00, 223.9, 162.4)">N</text><text xml:space="preserve" font-family="AvenirNext-Bold,Avenir Next" font-weight="bold" font-size="31.2" fill="#3D3B38" transform="matrix(1.00, 0.00, -0.00, -1.00, 251.0, 162.4)"> </text><text xml:space="preserve" font-family="AvenirNext-Bold,Avenir Next" font-weight="bold" font-size="31.2" fill="#3D3B38" transform="matrix(1.00, 0.00, -0.00, -1.00, 261.3, 162.4)">I</text><text xml:space="preserve" font-family="AvenirNext-Bold,Avenir Next" font-weight="bold" font-size="31.2" fill="#3D3B38" transform="matrix(1.00, 0.00, -0.00, -1.00, 273.7, 162.4)">M</text><text xml:space="preserve" font-family="AvenirNext-Bold,Avenir Next" font-weight="bold" font-size="31.2" fill="#3D3B38" transform="matrix(1.00, 0.00, -0.00, -1.00, 306.0, 162.4)">P</text><text xml:space="preserve" font-family="AvenirNext-Bold,Avenir Next" font-weight="bold" font-size="31.2" fill="#3D3B38" transform="matrix(1.00, 0.00, -0.00, -1.00, 328.5, 162.4)">L</text><text xml:space="preserve" font-family="AvenirNext-Bold,Avenir Next" font-weight="bold" font-size="31.2" fill="#3D3B38" transform="matrix(1.00, 0.00, -0.00, -1.00, 347.4, 162.4)">E</text><text xml:space="preserve" font-family="AvenirNext-Bold,Avenir Next" font-weight="bold" font-size="31.2" fill="#3D3B38" transform="matrix(1.00, 0.00, -0.00, -1.00, 368.8, 162.4)">M</text><text xml:space="preserve" font-family="AvenirNext-Bold,Avenir Next" font-weight="bold" font-size="31.2" fill="#3D3B38" transform="matrix(1.00, 0.00, -0.00, -1.00, 401.1, 162.4)">E</text><text xml:space="preserve" font-family="AvenirNext-Bold,Avenir Next" font-weight="bold" font-size="31.2" fill="#3D3B38" transform="matrix(1.00, 0.00, -0.00, -1.00, 422.5, 162.4)">N</text><text xml:space="preserve" font-family="AvenirNext-Bold,Avenir Next" font-weight="bold" font-size="31.2" fill="#3D3B38" transform="matrix(1.00, 0.00, -0.00, -1.00, 449.7, 162.4)">T</text><text xml:space="preserve" font-family="AvenirNext-Bold,Avenir Next" font-weight="bold" font-size="31.2" fill="#3D3B38" transform="matrix(1.00, 0.00, -0.00, -1.00, 468.4, 162.4)">A</text><text xml:space="preserve" font-family="AvenirNext-Bold,Avenir Next" font-weight="bold" font-size="31.2" fill="#3D3B38" transform="matrix(1.00, 0.00, -0.00, -1.00, 491.8, 162.4)">T</text><text xml:space="preserve" font-family="AvenirNext-Bold,Avenir Next" font-weight="bold" font-size="31.2" fill="#3D3B38" transform="matrix(1.00, 0.00, -0.00, -1.00, 512.4, 162.4)">I</text><text xml:space="preserve" font-family="AvenirNext-Bold,Avenir Next" font-weight="bold" font-size="31.2" fill="#3D3B38" transform="matrix(1.00, 0.00, -0.00, -1.00, 524.8, 162.4)">O</text><text xml:space="preserve" font-family="AvenirNext-Bold,Avenir Next" font-weight="bold" font-size="31.2" fill="#3D3B38" transform="matrix(1.00, 0.00, -0.00, -1.00, 553.9, 162.4)">N</text><text xml:space="preserve" font-family="AvenirNext-Bold,Avenir Next" font-weight="bold" font-size="31.2" fill="#3D3B38" transform="matrix(1.00, 0.00, -0.00, -1.00, 581.0, 162.4)"> </text><text xml:space="preserve" font-family="AvenirNext-Bold,Avenir Next" font-weight="bold" font-size="31.2" fill="#3D3B38" transform="matrix(1.00, 0.00, -0.00, -1.00, 591.3, 162.4)">O</text><text xml:space="preserve" font-family="AvenirNext-Bold,Avenir Next" font-weight="bold" font-size="31.2" fill="#3D3B38" transform="matrix(1.00, 0.00, -0.00, -1.00, 620.4, 162.4)">F</text><text xml:space="preserve" font-family="AvenirNext-Bold,Avenir Next" font-weight="bold" font-size="31.2" fill="#3D3B38" transform="matrix(1.00, 0.00, -0.00, -1.00, 640.8, 162.4)"> </text><text xml:space="preserve" font-family="AvenirNext-Bold,Avenir Next" font-weight="bold" font-size="31.2" fill="#3D3B38" transform="matrix(1.00, 0.00, -0.00, -1.00, 650.4, 162.4)">T</text><text xml:space="preserve" font-family="AvenirNext-Bold,Avenir Next" font-weight="bold" font-size="31.2" fill="#3D3B38" transform="matrix(1.00, 0.00, -0.00, -1.00, 671.0, 162.4)">H</text><text xml:space="preserve" font-family="AvenirNext-Bold,Avenir Next" font-weight="bold" font-size="31.2" fill="#3D3B38" transform="matrix(1.00, 0.00, -0.00, -1.00, 697.3, 162.4)">E</text><text xml:space="preserve" font-family="AvenirNext-Bold,Avenir Next" font-weight="bold" font-size="31.2" fill="#3D3B38" transform="matrix(1.00, 0.00, -0.00, -1.00, 718.8, 162.4)"> </text><text xml:space="preserve" font-family="AvenirNext-Bold,Avenir Next" font-weight="bold" font-size="31.2" fill="#3D3B38" transform="matrix(1.00, 0.00, -0.00, -1.00, 729.1, 162.4)">S</text><text xml:space="preserve" font-family="AvenirNext-Bold,Avenir Next" font-weight="bold" font-size="31.2" fill="#3D3B38" transform="matrix(1.00, 0.00, -0.00, -1.00, 749.6, 162.4)">T</text><text xml:space="preserve" font-family="AvenirNext-Bold,Avenir Next" font-weight="bold" font-size="31.2" fill="#3D3B38" transform="matrix(1.00, 0.00, -0.00, -1.00, 770.2, 162.4)">U</text><text xml:space="preserve" font-family="AvenirNext-Bold,Avenir Next" font-weight="bold" font-size="31.2" fill="#3D3B38" transform="matrix(1.00, 0.00, -0.00, -1.00, 795.8, 162.4)">D</text><text xml:space="preserve" font-family="AvenirNext-Bold,Avenir Next" font-weight="bold" font-size="31.2" fill="#3D3B38" transform="matrix(1.00, 0.00, -0.00, -1.00, 822.4, 162.4)">I</text><text xml:space="preserve" font-family="AvenirNext-Bold,Avenir Next" font-weight="bold" font-size="31.2" fill="#3D3B38" transform="matrix(1.00, 0.00, -0.00, -1.00, 834.8, 162.4)">O</text><text xml:space="preserve" font-family="AvenirNext-Bold,Avenir Next" font-weight="bold" font-size="31.2" fill="#3D3B38" transform="matrix(1.00, 0.00, -0.00, -1.00, 863.9, 162.4)"> </text><image xlink:href="0BE4CDA1DFE028B16F6645FAD3A77D36.png" width="704.00" height="28.00" transform="matrix(1.00, 0.00, -0.00, -1.00, 75.0, 152.0)"></image><text xml:space="preserve" font-family="AvenirNext-Bold,Avenir Next" font-weight="bold" font-size="31.2" fill="#3D3B38" transform="matrix(1.00, 0.00, -0.00, -1.00, 75.0, 128.8)">H</text><text xml:space="preserve" font-family="AvenirNext-Bold,Avenir Next" font-weight="bold" font-size="31.2" fill="#3D3B38" transform="matrix(1.00, 0.00, -0.00, -1.00, 101.3, 128.8)">A</text><text xml:space="preserve" font-family="AvenirNext-Bold,Avenir Next" font-weight="bold" font-size="31.2" fill="#3D3B38" transform="matrix(1.00, 0.00, -0.00, -1.00, 126.6, 128.8)">B</text><text xml:space="preserve" font-family="AvenirNext-Bold,Avenir Next" font-weight="bold" font-size="31.2" fill="#3D3B38" transform="matrix(1.00, 0.00, -0.00, -1.00, 149.8, 128.8)">I</text><text xml:space="preserve" font-family="AvenirNext-Bold,Avenir Next" font-weight="bold" font-size="31.2" fill="#3D3B38" transform="matrix(1.00, 0.00, -0.00, -1.00, 162.2, 128.8)">T</text><text xml:space="preserve" font-family="AvenirNext-Bold,Avenir Next" font-weight="bold" font-size="31.2" fill="#3D3B38" transform="matrix(1.00, 0.00, -0.00, -1.00, 182.9, 128.8)">S</text><text xml:space="preserve" font-family="AvenirNext-Bold,Avenir Next" font-weight="bold" font-size="31.2" fill="#3D3B38" transform="matrix(1.00, 0.00, -0.00, -1.00, 203.8, 128.8)"> </text><text xml:space="preserve" font-family="AvenirNext-Bold,Avenir Next" font-weight="bold" font-size="31.2" fill="#3D3B38" transform="matrix(1.00, 0.00, -0.00, -1.00, 214.1, 128.8)">O</text><text xml:space="preserve" font-family="AvenirNext-Bold,Avenir Next" font-weight="bold" font-size="31.2" fill="#3D3B38" transform="matrix(1.00, 0.00, -0.00, -1.00, 243.1, 128.8)">F</text><text xml:space="preserve" font-family="AvenirNext-Bold,Avenir Next" font-weight="bold" font-size="31.2" fill="#3D3B38" transform="matrix(1.00, 0.00, -0.00, -1.00, 263.6, 128.8)"> </text><text xml:space="preserve" font-family="AvenirNext-Bold,Avenir Next" font-weight="bold" font-size="31.2" fill="#3D3B38" transform="matrix(1.00, 0.00, -0.00, -1.00, 273.9, 128.8)">M</text><text xml:space="preserve" font-family="AvenirNext-Bold,Avenir Next" font-weight="bold" font-size="31.2" fill="#3D3B38" transform="matrix(1.00, 0.00, -0.00, -1.00, 306.2, 128.8)">I</text><text xml:space="preserve" font-family="AvenirNext-Bold,Avenir Next" font-weight="bold" font-size="31.2" fill="#3D3B38" transform="matrix(1.00, 0.00, -0.00, -1.00, 318.6, 128.8)">N</text><text xml:space="preserve" font-family="AvenirNext-Bold,Avenir Next" font-weight="bold" font-size="31.2" fill="#3D3B38" transform="matrix(1.00, 0.00, -0.00, -1.00, 345.8, 128.8)">D</text><text xml:space="preserve" font-family="AvenirNext-Bold,Avenir Next" font-weight="bold" font-size="31.2" fill="#3D3B38" transform="matrix(1.00, 0.00, -0.00, -1.00, 372.4, 128.8)"> </text><text xml:space="preserve" font-family="AvenirNext-Bold,Avenir Next" font-weight="bold" font-size="31.2" fill="#3D3B38" transform="matrix(1.00, 0.00, -0.00, -1.00, 382.7, 128.8)">I</text><text xml:space="preserve" font-family="AvenirNext-Bold,Avenir Next" font-weight="bold" font-size="31.2" fill="#3D3B38" transform="matrix(1.00, 0.00, -0.00, -1.00, 395.1, 128.8)">M</text><text xml:space="preserve" font-family="AvenirNext-Bold,Avenir Next" font-weight="bold" font-size="31.2" fill="#3D3B38" transform="matrix(1.00, 0.00, -0.00, -1.00, 427.4, 128.8)">P</text><text xml:space="preserve" font-family="AvenirNext-Bold,Avenir Next" font-weight="bold" font-size="31.2" fill="#3D3B38" transform="matrix(1.00, 0.00, -0.00, -1.00, 449.9, 128.8)">R</text><text xml:space="preserve" font-family="AvenirNext-Bold,Avenir Next" font-weight="bold" font-size="31.2" fill="#3D3B38" transform="matrix(1.00, 0.00, -0.00, -1.00, 473.0, 128.8)">O</text><text xml:space="preserve" font-family="AvenirNext-Bold,Avenir Next" font-weight="bold" font-size="31.2" fill="#3D3B38" transform="matrix(1.00, 0.00, -0.00, -1.00, 501.7, 128.8)">V</text><text xml:space="preserve" font-family="AvenirNext-Bold,Avenir Next" font-weight="bold" font-size="31.2" fill="#3D3B38" transform="matrix(1.00, 0.00, -0.00, -1.00, 525.5, 128.8)">E</text><text xml:space="preserve" font-family="AvenirNext-Bold,Avenir Next" font-weight="bold" font-size="31.2" fill="#3D3B38" transform="matrix(1.00, 0.00, -0.00, -1.00, 546.9, 128.8)"> </text><text xml:space="preserve" font-family="AvenirNext-Bold,Avenir Next" font-weight="bold" font-size="31.2" fill="#3D3B38" transform="matrix(1.00, 0.00, -0.00, -1.00, 557.2, 128.8)">C</text><text xml:space="preserve" font-family="AvenirNext-Bold,Avenir Next" font-weight="bold" font-size="31.2" fill="#3D3B38" transform="matrix(1.00, 0.00, -0.00, -1.00, 581.4, 128.8)">L</text><text xml:space="preserve" font-family="AvenirNext-Bold,Avenir Next" font-weight="bold" font-size="31.2" fill="#3D3B38" transform="matrix(1.00, 0.00, -0.00, -1.00, 600.3, 128.8)">A</text><text xml:space="preserve" font-family="AvenirNext-Bold,Avenir Next" font-weight="bold" font-size="31.2" fill="#3D3B38" transform="matrix(1.00, 0.00, -0.00, -1.00, 625.6, 128.8)">S</text><text xml:space="preserve" font-family="AvenirNext-Bold,Avenir Next" font-weight="bold" font-size="31.2" fill="#3D3B38" transform="matrix(1.00, 0.00, -0.00, -1.00, 646.5, 128.8)">S</text><text xml:space="preserve" font-family="AvenirNext-Bold,Avenir Next" font-weight="bold" font-size="31.2" fill="#3D3B38" transform="matrix(1.00, 0.00, -0.00, -1.00, 667.5, 128.8)">R</text><text xml:space="preserve" font-family="AvenirNext-Bold,Avenir Next" font-weight="bold" font-size="31.2" fill="#3D3B38" transform="matrix(1.00, 0.00, -0.00, -1.00, 690.6, 128.8)">O</text><text xml:space="preserve" font-family="AvenirNext-Bold,Avenir Next" font-weight="bold" font-size="31.2" fill="#3D3B38" transform="matrix(1.00, 0.00, -0.00, -1.00, 719.7, 128.8)">O</text><text xml:space="preserve" font-family="AvenirNext-Bold,Avenir Next" font-weight="bold" font-size="31.2" fill="#3D3B38" transform="matrix(1.00, 0.00, -0.00, -1.00, 748.7, 128.8)">M</text><text xml:space="preserve" font-family="AvenirNext-Bold,Avenir Next" font-weight="bold" font-size="31.2" fill="#3D3B38" transform="matrix(1.00, 0.00, -0.00, -1.00, 781.0, 128.8)"> </text><image xlink:href="32CF4DD61180F884F6725817433DC3BE.png" width="290.00" height="28.00" transform="matrix(1.00, 0.00, -0.00, -1.00, 75.0, 118.0)"></image><text xml:space="preserve" font-family="AvenirNext-Bold,Avenir Next" font-weight="bold" font-size="31.2" fill="#3D3B38" transform="matrix(1.00, 0.00, -0.00, -1.00, 75.0, 95.2)">P</text><text xml:space="preserve" font-family="AvenirNext-Bold,Avenir Next" font-weight="bold" font-size="31.2" fill="#3D3B38" transform="matrix(1.00, 0.00, -0.00, -1.00, 95.6, 95.2)">A</text><text xml:space="preserve" font-family="AvenirNext-Bold,Avenir Next" font-weight="bold" font-size="31.2" fill="#3D3B38" transform="matrix(1.00, 0.00, -0.00, -1.00, 120.8, 95.2)">R</text><text xml:space="preserve" font-family="AvenirNext-Bold,Avenir Next" font-weight="bold" font-size="31.2" fill="#3D3B38" transform="matrix(1.00, 0.00, -0.00, -1.00, 143.6, 95.2)">T</text><text xml:space="preserve" font-family="AvenirNext-Bold,Avenir Next" font-weight="bold" font-size="31.2" fill="#3D3B38" transform="matrix(1.00, 0.00, -0.00, -1.00, 164.3, 95.2)">I</text><text xml:space="preserve" font-family="AvenirNext-Bold,Avenir Next" font-weight="bold" font-size="31.2" fill="#3D3B38" transform="matrix(1.00, 0.00, -0.00, -1.00, 176.7, 95.2)">C</text><text xml:space="preserve" font-family="AvenirNext-Bold,Avenir Next" font-weight="bold" font-size="31.2" fill="#3D3B38" transform="matrix(1.00, 0.00, -0.00, -1.00, 200.9, 95.2)">I</text><text xml:space="preserve" font-family="AvenirNext-Bold,Avenir Next" font-weight="bold" font-size="31.2" fill="#3D3B38" transform="matrix(1.00, 0.00, -0.00, -1.00, 213.3, 95.2)">P</text><text xml:space="preserve" font-family="AvenirNext-Bold,Avenir Next" font-weight="bold" font-size="31.2" fill="#3D3B38" transform="matrix(1.00, 0.00, -0.00, -1.00, 233.9, 95.2)">A</text><text xml:space="preserve" font-family="AvenirNext-Bold,Avenir Next" font-weight="bold" font-size="31.2" fill="#3D3B38" transform="matrix(1.00, 0.00, -0.00, -1.00, 257.3, 95.2)">T</text><text xml:space="preserve" font-family="AvenirNext-Bold,Avenir Next" font-weight="bold" font-size="31.2" fill="#3D3B38" transform="matrix(1.00, 0.00, -0.00, -1.00, 277.9, 95.2)">I</text><text xml:space="preserve" font-family="AvenirNext-Bold,Avenir Next" font-weight="bold" font-size="31.2" fill="#3D3B38" transform="matrix(1.00, 0.00, -0.00, -1.00, 290.3, 95.2)">O</text><text xml:space="preserve" font-family="AvenirNext-Bold,Avenir Next" font-weight="bold" font-size="31.2" fill="#3D3B38" transform="matrix(1.00, 0.00, -0.00, -1.00, 319.4, 95.2)">N</text><text xml:space="preserve" font-family="AvenirNext-Bold,Avenir Next" font-weight="bold" font-size="31.2" fill="#3D3B38" transform="matrix(1.00, 0.00, -0.00, -1.00, 346.5, 95.2)">?</text><image xlink:href="D283437376E3E30E6459B531B44365AB.jpeg" width="900.00" height="400.00" transform="matrix(1.00, 0.00, -0.00, -1.00, 62.0, 659.0)"></image><image xlink:href="7A8E35477949FC81B33AC07921335906.png" width="161.00" height="16.00" transform="matrix(1.00, 0.00, -0.00, -1.00, 798.0, 251.0)"></image><text xml:space="preserve" font-family="AvenirNext-MediumItalic,Avenir Next" font-style="italic" font-size="15.0" fill="#5D514B" transform="matrix(1.00, 0.00, -0.00, -1.00, 799.9, 239.5)">P</text><text xml:space="preserve" font-family="AvenirNext-MediumItalic,Avenir Next" font-style="italic" font-size="15.0" fill="#5D514B" transform="matrix(1.00, 0.00, -0.00, -1.00, 808.8, 239.5)">h</text><text xml:space="preserve" font-family="AvenirNext-MediumItalic,Avenir Next" font-style="italic" font-size="15.0" fill="#5D514B" transform="matrix(1.00, 0.00, -0.00, -1.00, 817.5, 239.5)">o</text><text xml:space="preserve" font-family="AvenirNext-MediumItalic,Avenir Next" font-style="italic" font-size="15.0" fill="#5D514B" transform="matrix(1.00, 0.00, -0.00, -1.00, 826.5, 239.5)">t</text><text xml:space="preserve" font-family="AvenirNext-MediumItalic,Avenir Next" font-style="italic" font-size="15.0" fill="#5D514B" transform="matrix(1.00, 0.00, -0.00, -1.00, 831.4, 239.5)">o</text><text xml:space="preserve" font-family="AvenirNext-MediumItalic,Avenir Next" font-style="italic" font-size="15.0" fill="#5D514B" transform="matrix(1.00, 0.00, -0.00, -1.00, 840.4, 239.5)">:</text><text xml:space="preserve" font-family="AvenirNext-MediumItalic,Avenir Next" font-style="italic" font-size="15.0" fill="#5D514B" transform="matrix(1.00, 0.00, -0.00, -1.00, 844.9, 239.5)"> </text><text xml:space="preserve" font-family="AvenirNext-MediumItalic,Avenir Next" font-style="italic" font-size="15.0" fill="#5D514B" transform="matrix(1.00, 0.00, -0.00, -1.00, 848.4, 239.5)">A</text><text xml:space="preserve" font-family="AvenirNext-MediumItalic,Avenir Next" font-style="italic" font-size="15.0" fill="#5D514B" transform="matrix(1.00, 0.00, -0.00, -1.00, 858.6, 239.5)">i</text><text xml:space="preserve" font-family="AvenirNext-MediumItalic,Avenir Next" font-style="italic" font-size="15.0" fill="#5D514B" transform="matrix(1.00, 0.00, -0.00, -1.00, 862.5, 239.5)">m</text><text xml:space="preserve" font-family="AvenirNext-MediumItalic,Avenir Next" font-style="italic" font-size="15.0" fill="#5D514B" transform="matrix(1.00, 0.00, -0.00, -1.00, 875.7, 239.5)">e</text><text xml:space="preserve" font-family="AvenirNext-MediumItalic,Avenir Next" font-style="italic" font-size="15.0" fill="#5D514B" transform="matrix(1.00, 0.00, -0.00, -1.00, 884.2, 239.5)">e</text><text xml:space="preserve" font-family="AvenirNext-MediumItalic,Avenir Next" font-style="italic" font-size="15.0" fill="#5D514B" transform="matrix(1.00, 0.00, -0.00, -1.00, 892.7, 239.5)"> </text><text xml:space="preserve" font-family="AvenirNext-MediumItalic,Avenir Next" font-style="italic" font-size="15.0" fill="#5D514B" transform="matrix(1.00, 0.00, -0.00, -1.00, 896.4, 239.5)">C</text><text xml:space="preserve" font-family="AvenirNext-MediumItalic,Avenir Next" font-style="italic" font-size="15.0" fill="#5D514B" transform="matrix(1.00, 0.00, -0.00, -1.00, 906.7, 239.5)">a</text><text xml:space="preserve" font-family="AvenirNext-MediumItalic,Avenir Next" font-style="italic" font-size="15.0" fill="#5D514B" transform="matrix(1.00, 0.00, -0.00, -1.00, 914.7, 239.5)">r</text><text xml:space="preserve" font-family="AvenirNext-MediumItalic,Avenir Next" font-style="italic" font-size="15.0" fill="#5D514B" transform="matrix(1.00, 0.00, -0.00, -1.00, 919.9, 239.5)">m</text><text xml:space="preserve" font-family="AvenirNext-MediumItalic,Avenir Next" font-style="italic" font-size="15.0" fill="#5D514B" transform="matrix(1.00, 0.00, -0.00, -1.00, 933.1, 239.5)">e</text><text xml:space="preserve" font-family="AvenirNext-MediumItalic,Avenir Next" font-style="italic" font-size="15.0" fill="#5D514B" transform="matrix(1.00, 0.00, -0.00, -1.00, 941.6, 239.5)">l</text><text xml:space="preserve" font-family="AvenirNext-MediumItalic,Avenir Next" font-style="italic" font-size="15.0" fill="#5D514B" transform="matrix(1.00, 0.00, -0.00, -1.00, 945.5, 239.5)">l</text><text xml:space="preserve" font-family="AvenirNext-MediumItalic,Avenir Next" font-style="italic" font-size="15.0" fill="#5D514B" transform="matrix(1.00, 0.00, -0.00, -1.00, 949.4, 239.5)">a</text></g></svg>