<?xml version="1.0" encoding="UTF-8" standalone="no"?><svg xmlns="http://www.w3.org/2000/svg" xmlns:xlink="http://www.w3.org/1999/xlink" clip-rule="evenodd" stroke-miterlimit="10" viewBox="0 0 1024 768"><desc>SVG generated by Keynote</desc><defs></defs><g transform="matrix(1.00, 0.00, -0.00, -1.00, 0.0, 768.0)"><g><clipPath id="clip0x7ff82f35d030"><path d="M 0.0 768.0 L 1024.0 768.0 L 1024.0 0.0 L 0.0 0.0 Z M 0.0 768.0 "></path></clipPath><g clip-path="url(#clip0x7ff82f35d030)"><image xlink:href="../../5AFCDCF3-4DC9-448B-ACCC-D8922AE4CE0C/assets/B5EE15FD4291743AF7496326DC17A466.jpeg" width="2048.00" height="1536.00" transform="matrix(0.50, 0.00, -0.00, -0.50, 0.0, 768.0)"></image></g></g><g opacity="0.45"><g><clipPath id="clip0x7ff82f447bc0"><path d="M 30.0 48.0 L 994.0 48.0 L 994.0 741.0 L 30.0 741.0 Z M 30.0 48.0 "></path></clipPath><g clip-path="url(#clip0x7ff82f447bc0)"><image xlink:href="../../5AFCDCF3-4DC9-448B-ACCC-D8922AE4CE0C/assets/1E0376F862DA30D710D4F1E0694CAC10.png" width="1374.00" height="986.00" transform="matrix(0.70, 0.00, -0.00, -0.70, 31.0, 740.0)"></image></g></g></g><g><clipPath id="clip0x7ff82f448570"><path d="M 53.0 519.0 L 971.0 519.0 L 971.0 249.0 L 53.0 249.0 Z M 52.7 519.3 "></path></clipPath><g clip-path="url(#clip0x7ff82f448570)"><image xlink:href="9DD6567CF0511CF8AB1C65C7B139E3D6.png" width="871.00" height="189.00" transform="matrix(1.05, 0.00, -0.00, -1.06, 53.0, 484.0)"></image></g></g><image xlink:href="9367712406173F281F55E9E2F1304E35.png" width="925.00" height="279.00" transform="matrix(1.00, 0.00, -0.00, 1.00, 49.7, 244.7)"></image><image xlink:href="79783012E34952F689DC62856DEBBF6D.png" width="455.00" height="41.00" transform="matrix(1.00, 0.00, -0.00, -1.00, 56.0, 678.0)"></image><text xml:space="preserve" font-family="AvenirNext-Bold,Avenir Next" font-weight="bold" font-size="48.0" fill="#3D3B38" transform="matrix(1.00, 0.00, -0.00, -1.00, 55.0, 642.9)">D</text><text xml:space="preserve" font-family="AvenirNext-Bold,Avenir Next" font-weight="bold" font-size="48.0" fill="#3D3B38" transform="matrix(1.00, 0.00, -0.00, -1.00, 94.8, 642.9)">A</text><text xml:space="preserve" font-family="AvenirNext-Bold,Avenir Next" font-weight="bold" font-size="48.0" fill="#3D3B38" transform="matrix(1.00, 0.00, -0.00, -1.00, 133.7, 642.9)">I</text><text xml:space="preserve" font-family="AvenirNext-Bold,Avenir Next" font-weight="bold" font-size="48.0" fill="#3D3B38" transform="matrix(1.00, 0.00, -0.00, -1.00, 152.8, 642.9)">L</text><text xml:space="preserve" font-family="AvenirNext-Bold,Avenir Next" font-weight="bold" font-size="48.0" fill="#3D3B38" transform="matrix(1.00, 0.00, -0.00, -1.00, 178.2, 642.9)">Y</text><text xml:space="preserve" font-family="AvenirNext-Bold,Avenir Next" font-weight="bold" font-size="48.0" fill="#3D3B38" transform="matrix(1.00, 0.00, -0.00, -1.00, 213.0, 642.9)"> </text><text xml:space="preserve" font-family="AvenirNext-Bold,Avenir Next" font-weight="bold" font-size="48.0" fill="#3D3B38" transform="matrix(1.00, 0.00, -0.00, -1.00, 228.8, 642.9)">S</text><text xml:space="preserve" font-family="AvenirNext-Bold,Avenir Next" font-weight="bold" font-size="48.0" fill="#3D3B38" transform="matrix(1.00, 0.00, -0.00, -1.00, 261.0, 642.9)">C</text><text xml:space="preserve" font-family="AvenirNext-Bold,Avenir Next" font-weight="bold" font-size="48.0" fill="#3D3B38" transform="matrix(1.00, 0.00, -0.00, -1.00, 298.3, 642.9)">H</text><text xml:space="preserve" font-family="AvenirNext-Bold,Avenir Next" font-weight="bold" font-size="48.0" fill="#3D3B38" transform="matrix(1.00, 0.00, -0.00, -1.00, 338.8, 642.9)">E</text><text xml:space="preserve" font-family="AvenirNext-Bold,Avenir Next" font-weight="bold" font-size="48.0" fill="#3D3B38" transform="matrix(1.00, 0.00, -0.00, -1.00, 371.8, 642.9)">D</text><text xml:space="preserve" font-family="AvenirNext-Bold,Avenir Next" font-weight="bold" font-size="48.0" fill="#3D3B38" transform="matrix(1.00, 0.00, -0.00, -1.00, 412.7, 642.9)">U</text><text xml:space="preserve" font-family="AvenirNext-Bold,Avenir Next" font-weight="bold" font-size="48.0" fill="#3D3B38" transform="matrix(1.00, 0.00, -0.00, -1.00, 452.0, 642.9)">L</text><text xml:space="preserve" font-family="AvenirNext-Bold,Avenir Next" font-weight="bold" font-size="48.0" fill="#3D3B38" transform="matrix(1.00, 0.00, -0.00, -1.00, 481.1, 642.9)">E</text><image xlink:href="BC2C4F5F82D6C557FD029921D8F8E77D.png" width="874.00" height="37.00" transform="matrix(1.00, 0.00, -0.00, -1.00, 74.0, 205.0)"></image><text xml:space="preserve" font-family="AvenirNext-MediumItalic,Avenir Next" font-style="italic" font-size="32.0" fill="#5D514B" transform="matrix(1.00, 0.00, -0.00, -1.00, 76.0, 180.4)">ï¬</text><text xml:space="preserve" font-family="AvenirNext-MediumItalic,Avenir Next" font-style="italic" font-size="32.0" fill="#5D514B" transform="matrix(1.00, 0.00, -0.00, -1.00, 94.3, 180.4)">f</text><text xml:space="preserve" font-family="AvenirNext-MediumItalic,Avenir Next" font-style="italic" font-size="32.0" fill="#5D514B" transform="matrix(1.00, 0.00, -0.00, -1.00, 103.8, 180.4)">t</text><text xml:space="preserve" font-family="AvenirNext-MediumItalic,Avenir Next" font-style="italic" font-size="32.0" fill="#5D514B" transform="matrix(1.00, 0.00, -0.00, -1.00, 114.2, 180.4)">y</text><text xml:space="preserve" font-family="AvenirNext-MediumItalic,Avenir Next" font-style="italic" font-size="32.0" fill="#5D514B" transform="matrix(1.00, 0.00, -0.00, -1.00, 130.0, 180.4)"> </text><text xml:space="preserve" font-family="AvenirNext-MediumItalic,Avenir Next" font-style="italic" font-size="32.0" fill="#5D514B" transform="matrix(1.00, 0.00, -0.00, -1.00, 138.0, 180.4)">m</text><text xml:space="preserve" font-family="AvenirNext-MediumItalic,Avenir Next" font-style="italic" font-size="32.0" fill="#5D514B" transform="matrix(1.00, 0.00, -0.00, -1.00, 166.3, 180.4)">i</text><text xml:space="preserve" font-family="AvenirNext-MediumItalic,Avenir Next" font-style="italic" font-size="32.0" fill="#5D514B" transform="matrix(1.00, 0.00, -0.00, -1.00, 174.6, 180.4)">n</text><text xml:space="preserve" font-family="AvenirNext-MediumItalic,Avenir Next" font-style="italic" font-size="32.0" fill="#5D514B" transform="matrix(1.00, 0.00, -0.00, -1.00, 193.2, 180.4)">u</text><text xml:space="preserve" font-family="AvenirNext-MediumItalic,Avenir Next" font-style="italic" font-size="32.0" fill="#5D514B" transform="matrix(1.00, 0.00, -0.00, -1.00, 211.8, 180.4)">t</text><text xml:space="preserve" font-family="AvenirNext-MediumItalic,Avenir Next" font-style="italic" font-size="32.0" fill="#5D514B" transform="matrix(1.00, 0.00, -0.00, -1.00, 222.2, 180.4)">e</text><text xml:space="preserve" font-family="AvenirNext-MediumItalic,Avenir Next" font-style="italic" font-size="32.0" fill="#5D514B" transform="matrix(1.00, 0.00, -0.00, -1.00, 240.2, 180.4)">s</text><text xml:space="preserve" font-family="AvenirNext-MediumItalic,Avenir Next" font-style="italic" font-size="32.0" fill="#5D514B" transform="matrix(1.00, 0.00, -0.00, -1.00, 254.4, 180.4)"> </text><text xml:space="preserve" font-family="AvenirNext-MediumItalic,Avenir Next" font-style="italic" font-size="32.0" fill="#5D514B" transform="matrix(1.00, 0.00, -0.00, -1.00, 262.4, 180.4)">o</text><text xml:space="preserve" font-family="AvenirNext-MediumItalic,Avenir Next" font-style="italic" font-size="32.0" fill="#5D514B" transform="matrix(1.00, 0.00, -0.00, -1.00, 281.6, 180.4)">f</text><text xml:space="preserve" font-family="AvenirNext-MediumItalic,Avenir Next" font-style="italic" font-size="32.0" fill="#5D514B" transform="matrix(1.00, 0.00, -0.00, -1.00, 292.3, 180.4)"> </text><text xml:space="preserve" font-family="AvenirNext-MediumItalic,Avenir Next" font-style="italic" font-size="32.0" fill="#5D514B" transform="matrix(1.00, 0.00, -0.00, -1.00, 300.3, 180.4)">e</text><text xml:space="preserve" font-family="AvenirNext-MediumItalic,Avenir Next" font-style="italic" font-size="32.0" fill="#5D514B" transform="matrix(1.00, 0.00, -0.00, -1.00, 318.2, 180.4)">a</text><text xml:space="preserve" font-family="AvenirNext-MediumItalic,Avenir Next" font-style="italic" font-size="32.0" fill="#5D514B" transform="matrix(1.00, 0.00, -0.00, -1.00, 335.4, 180.4)">c</text><text xml:space="preserve" font-family="AvenirNext-MediumItalic,Avenir Next" font-style="italic" font-size="32.0" fill="#5D514B" transform="matrix(1.00, 0.00, -0.00, -1.00, 351.2, 180.4)">h</text><text xml:space="preserve" font-family="AvenirNext-MediumItalic,Avenir Next" font-style="italic" font-size="32.0" fill="#5D514B" transform="matrix(1.00, 0.00, -0.00, -1.00, 369.8, 180.4)"> </text><text xml:space="preserve" font-family="AvenirNext-MediumItalic,Avenir Next" font-style="italic" font-size="32.0" fill="#5D514B" transform="matrix(1.00, 0.00, -0.00, -1.00, 377.8, 180.4)">c</text><text xml:space="preserve" font-family="AvenirNext-MediumItalic,Avenir Next" font-style="italic" font-size="32.0" fill="#5D514B" transform="matrix(1.00, 0.00, -0.00, -1.00, 393.7, 180.4)">l</text><text xml:space="preserve" font-family="AvenirNext-MediumItalic,Avenir Next" font-style="italic" font-size="32.0" fill="#5D514B" transform="matrix(1.00, 0.00, -0.00, -1.00, 402.0, 180.4)">a</text><text xml:space="preserve" font-family="AvenirNext-MediumItalic,Avenir Next" font-style="italic" font-size="32.0" fill="#5D514B" transform="matrix(1.00, 0.00, -0.00, -1.00, 419.2, 180.4)">s</text><text xml:space="preserve" font-family="AvenirNext-MediumItalic,Avenir Next" font-style="italic" font-size="32.0" fill="#5D514B" transform="matrix(1.00, 0.00, -0.00, -1.00, 433.4, 180.4)">s</text><text xml:space="preserve" font-family="AvenirNext-MediumItalic,Avenir Next" font-style="italic" font-size="32.0" fill="#5D514B" transform="matrix(1.00, 0.00, -0.00, -1.00, 447.6, 180.4)"> </text><text xml:space="preserve" font-family="AvenirNext-MediumItalic,Avenir Next" font-style="italic" font-size="32.0" fill="#5D514B" transform="matrix(1.00, 0.00, -0.00, -1.00, 455.6, 180.4)">w</text><text xml:space="preserve" font-family="AvenirNext-MediumItalic,Avenir Next" font-style="italic" font-size="32.0" fill="#5D514B" transform="matrix(1.00, 0.00, -0.00, -1.00, 479.9, 180.4)">a</text><text xml:space="preserve" font-family="AvenirNext-MediumItalic,Avenir Next" font-style="italic" font-size="32.0" fill="#5D514B" transform="matrix(1.00, 0.00, -0.00, -1.00, 497.1, 180.4)">s</text><text xml:space="preserve" font-family="AvenirNext-MediumItalic,Avenir Next" font-style="italic" font-size="32.0" fill="#5D514B" transform="matrix(1.00, 0.00, -0.00, -1.00, 511.3, 180.4)"> </text><text xml:space="preserve" font-family="AvenirNext-MediumItalic,Avenir Next" font-style="italic" font-size="32.0" fill="#5D514B" transform="matrix(1.00, 0.00, -0.00, -1.00, 519.3, 180.4)">t</text><text xml:space="preserve" font-family="AvenirNext-MediumItalic,Avenir Next" font-style="italic" font-size="32.0" fill="#5D514B" transform="matrix(1.00, 0.00, -0.00, -1.00, 529.7, 180.4)">a</text><text xml:space="preserve" font-family="AvenirNext-MediumItalic,Avenir Next" font-style="italic" font-size="32.0" fill="#5D514B" transform="matrix(1.00, 0.00, -0.00, -1.00, 546.9, 180.4)">k</text><text xml:space="preserve" font-family="AvenirNext-MediumItalic,Avenir Next" font-style="italic" font-size="32.0" fill="#5D514B" transform="matrix(1.00, 0.00, -0.00, -1.00, 562.4, 180.4)">e</text><text xml:space="preserve" font-family="AvenirNext-MediumItalic,Avenir Next" font-style="italic" font-size="32.0" fill="#5D514B" transform="matrix(1.00, 0.00, -0.00, -1.00, 580.5, 180.4)">n</text><text xml:space="preserve" font-family="AvenirNext-MediumItalic,Avenir Next" font-style="italic" font-size="32.0" fill="#5D514B" transform="matrix(1.00, 0.00, -0.00, -1.00, 599.1, 180.4)"> </text><text xml:space="preserve" font-family="AvenirNext-MediumItalic,Avenir Next" font-style="italic" font-size="32.0" fill="#5D514B" transform="matrix(1.00, 0.00, -0.00, -1.00, 607.1, 180.4)">u</text><text xml:space="preserve" font-family="AvenirNext-MediumItalic,Avenir Next" font-style="italic" font-size="32.0" fill="#5D514B" transform="matrix(1.00, 0.00, -0.00, -1.00, 625.7, 180.4)">p</text><text xml:space="preserve" font-family="AvenirNext-MediumItalic,Avenir Next" font-style="italic" font-size="32.0" fill="#5D514B" transform="matrix(1.00, 0.00, -0.00, -1.00, 645.9, 180.4)"> </text><text xml:space="preserve" font-family="AvenirNext-MediumItalic,Avenir Next" font-style="italic" font-size="32.0" fill="#5D514B" transform="matrix(1.00, 0.00, -0.00, -1.00, 653.9, 180.4)">b</text><text xml:space="preserve" font-family="AvenirNext-MediumItalic,Avenir Next" font-style="italic" font-size="32.0" fill="#5D514B" transform="matrix(1.00, 0.00, -0.00, -1.00, 674.2, 180.4)">y</text><text xml:space="preserve" font-family="AvenirNext-MediumItalic,Avenir Next" font-style="italic" font-size="32.0" fill="#5D514B" transform="matrix(1.00, 0.00, -0.00, -1.00, 690.0, 180.4)"> </text><text xml:space="preserve" font-family="AvenirNext-MediumItalic,Avenir Next" font-style="italic" font-size="32.0" fill="#5D514B" transform="matrix(1.00, 0.00, -0.00, -1.00, 698.0, 180.4)">s</text><text xml:space="preserve" font-family="AvenirNext-MediumItalic,Avenir Next" font-style="italic" font-size="32.0" fill="#5D514B" transform="matrix(1.00, 0.00, -0.00, -1.00, 712.2, 180.4)">t</text><text xml:space="preserve" font-family="AvenirNext-MediumItalic,Avenir Next" font-style="italic" font-size="32.0" fill="#5D514B" transform="matrix(1.00, 0.00, -0.00, -1.00, 722.6, 180.4)">u</text><text xml:space="preserve" font-family="AvenirNext-MediumItalic,Avenir Next" font-style="italic" font-size="32.0" fill="#5D514B" transform="matrix(1.00, 0.00, -0.00, -1.00, 741.2, 180.4)">d</text><text xml:space="preserve" font-family="AvenirNext-MediumItalic,Avenir Next" font-style="italic" font-size="32.0" fill="#5D514B" transform="matrix(1.00, 0.00, -0.00, -1.00, 761.3, 180.4)">e</text><text xml:space="preserve" font-family="AvenirNext-MediumItalic,Avenir Next" font-style="italic" font-size="32.0" fill="#5D514B" transform="matrix(1.00, 0.00, -0.00, -1.00, 779.3, 180.4)">n</text><text xml:space="preserve" font-family="AvenirNext-MediumItalic,Avenir Next" font-style="italic" font-size="32.0" fill="#5D514B" transform="matrix(1.00, 0.00, -0.00, -1.00, 797.9, 180.4)">t</text><text xml:space="preserve" font-family="AvenirNext-MediumItalic,Avenir Next" font-style="italic" font-size="32.0" fill="#5D514B" transform="matrix(1.00, 0.00, -0.00, -1.00, 808.3, 180.4)">s</text><text xml:space="preserve" font-family="AvenirNext-MediumItalic,Avenir Next" font-style="italic" font-size="32.0" fill="#5D514B" transform="matrix(1.00, 0.00, -0.00, -1.00, 822.5, 180.4)"> </text><text xml:space="preserve" font-family="AvenirNext-MediumItalic,Avenir Next" font-style="italic" font-size="32.0" fill="#5D514B" transform="matrix(1.00, 0.00, -0.00, -1.00, 830.5, 180.4)">a</text><text xml:space="preserve" font-family="AvenirNext-MediumItalic,Avenir Next" font-style="italic" font-size="32.0" fill="#5D514B" transform="matrix(1.00, 0.00, -0.00, -1.00, 847.7, 180.4)">r</text><text xml:space="preserve" font-family="AvenirNext-MediumItalic,Avenir Next" font-style="italic" font-size="32.0" fill="#5D514B" transform="matrix(1.00, 0.00, -0.00, -1.00, 858.7, 180.4)">r</text><text xml:space="preserve" font-family="AvenirNext-MediumItalic,Avenir Next" font-style="italic" font-size="32.0" fill="#5D514B" transform="matrix(1.00, 0.00, -0.00, -1.00, 869.6, 180.4)">i</text><text xml:space="preserve" font-family="AvenirNext-MediumItalic,Avenir Next" font-style="italic" font-size="32.0" fill="#5D514B" transform="matrix(1.00, 0.00, -0.00, -1.00, 877.9, 180.4)">v</text><text xml:space="preserve" font-family="AvenirNext-MediumItalic,Avenir Next" font-style="italic" font-size="32.0" fill="#5D514B" transform="matrix(1.00, 0.00, -0.00, -1.00, 893.6, 180.4)">i</text><text xml:space="preserve" font-family="AvenirNext-MediumItalic,Avenir Next" font-style="italic" font-size="32.0" fill="#5D514B" transform="matrix(1.00, 0.00, -0.00, -1.00, 901.9, 180.4)">n</text><text xml:space="preserve" font-family="AvenirNext-MediumItalic,Avenir Next" font-style="italic" font-size="32.0" fill="#5D514B" transform="matrix(1.00, 0.00, -0.00, -1.00, 920.5, 180.4)">g</text><text xml:space="preserve" font-family="AvenirNext-MediumItalic,Avenir Next" font-style="italic" font-size="32.0" fill="#5D514B" transform="matrix(1.00, 0.00, -0.00, -1.00, 940.7, 180.4)">,</text><text xml:space="preserve" font-family="AvenirNext-MediumItalic,Avenir Next" font-style="italic" font-size="32.0" fill="#5D514B" transform="matrix(1.00, 0.00, -0.00, -1.00, 948.0, 180.4)"> </text><image xlink:href="162F4653AD363800088E56DAF42CC3C3.png" width="601.00" height="37.00" transform="matrix(1.00, 0.00, -0.00, -1.00, 210.0, 161.0)"></image><text xml:space="preserve" font-family="AvenirNext-MediumItalic,Avenir Next" font-style="italic" font-size="32.0" fill="#5D514B" transform="matrix(1.00, 0.00, -0.00, -1.00, 212.4, 136.4)">g</text><text xml:space="preserve" font-family="AvenirNext-MediumItalic,Avenir Next" font-style="italic" font-size="32.0" fill="#5D514B" transform="matrix(1.00, 0.00, -0.00, -1.00, 232.5, 136.4)">e</text><text xml:space="preserve" font-family="AvenirNext-MediumItalic,Avenir Next" font-style="italic" font-size="32.0" fill="#5D514B" transform="matrix(1.00, 0.00, -0.00, -1.00, 250.6, 136.4)">t</text><text xml:space="preserve" font-family="AvenirNext-MediumItalic,Avenir Next" font-style="italic" font-size="32.0" fill="#5D514B" transform="matrix(1.00, 0.00, -0.00, -1.00, 260.4, 136.4)">t</text><text xml:space="preserve" font-family="AvenirNext-MediumItalic,Avenir Next" font-style="italic" font-size="32.0" fill="#5D514B" transform="matrix(1.00, 0.00, -0.00, -1.00, 270.8, 136.4)">i</text><text xml:space="preserve" font-family="AvenirNext-MediumItalic,Avenir Next" font-style="italic" font-size="32.0" fill="#5D514B" transform="matrix(1.00, 0.00, -0.00, -1.00, 279.1, 136.4)">n</text><text xml:space="preserve" font-family="AvenirNext-MediumItalic,Avenir Next" font-style="italic" font-size="32.0" fill="#5D514B" transform="matrix(1.00, 0.00, -0.00, -1.00, 297.7, 136.4)">g</text><text xml:space="preserve" font-family="AvenirNext-MediumItalic,Avenir Next" font-style="italic" font-size="32.0" fill="#5D514B" transform="matrix(1.00, 0.00, -0.00, -1.00, 317.8, 136.4)"> </text><text xml:space="preserve" font-family="AvenirNext-MediumItalic,Avenir Next" font-style="italic" font-size="32.0" fill="#5D514B" transform="matrix(1.00, 0.00, -0.00, -1.00, 325.8, 136.4)">s</text><text xml:space="preserve" font-family="AvenirNext-MediumItalic,Avenir Next" font-style="italic" font-size="32.0" fill="#5D514B" transform="matrix(1.00, 0.00, -0.00, -1.00, 340.0, 136.4)">e</text><text xml:space="preserve" font-family="AvenirNext-MediumItalic,Avenir Next" font-style="italic" font-size="32.0" fill="#5D514B" transform="matrix(1.00, 0.00, -0.00, -1.00, 358.1, 136.4)">t</text><text xml:space="preserve" font-family="AvenirNext-MediumItalic,Avenir Next" font-style="italic" font-size="32.0" fill="#5D514B" transform="matrix(1.00, 0.00, -0.00, -1.00, 367.9, 136.4)">t</text><text xml:space="preserve" font-family="AvenirNext-MediumItalic,Avenir Next" font-style="italic" font-size="32.0" fill="#5D514B" transform="matrix(1.00, 0.00, -0.00, -1.00, 378.3, 136.4)">l</text><text xml:space="preserve" font-family="AvenirNext-MediumItalic,Avenir Next" font-style="italic" font-size="32.0" fill="#5D514B" transform="matrix(1.00, 0.00, -0.00, -1.00, 386.6, 136.4)">e</text><text xml:space="preserve" font-family="AvenirNext-MediumItalic,Avenir Next" font-style="italic" font-size="32.0" fill="#5D514B" transform="matrix(1.00, 0.00, -0.00, -1.00, 404.7, 136.4)">d</text><text xml:space="preserve" font-family="AvenirNext-MediumItalic,Avenir Next" font-style="italic" font-size="32.0" fill="#5D514B" transform="matrix(1.00, 0.00, -0.00, -1.00, 424.8, 136.4)">,</text><text xml:space="preserve" font-family="AvenirNext-MediumItalic,Avenir Next" font-style="italic" font-size="32.0" fill="#5D514B" transform="matrix(1.00, 0.00, -0.00, -1.00, 432.1, 136.4)"> </text><text xml:space="preserve" font-family="AvenirNext-MediumItalic,Avenir Next" font-style="italic" font-size="32.0" fill="#5D514B" transform="matrix(1.00, 0.00, -0.00, -1.00, 440.1, 136.4)">o</text><text xml:space="preserve" font-family="AvenirNext-MediumItalic,Avenir Next" font-style="italic" font-size="32.0" fill="#5D514B" transform="matrix(1.00, 0.00, -0.00, -1.00, 459.3, 136.4)">r</text><text xml:space="preserve" font-family="AvenirNext-MediumItalic,Avenir Next" font-style="italic" font-size="32.0" fill="#5D514B" transform="matrix(1.00, 0.00, -0.00, -1.00, 470.3, 136.4)"> </text><text xml:space="preserve" font-family="AvenirNext-MediumItalic,Avenir Next" font-style="italic" font-size="32.0" fill="#5D514B" transform="matrix(1.00, 0.00, -0.00, -1.00, 478.3, 136.4)">e</text><text xml:space="preserve" font-family="AvenirNext-MediumItalic,Avenir Next" font-style="italic" font-size="32.0" fill="#5D514B" transform="matrix(1.00, 0.00, -0.00, -1.00, 496.2, 136.4)">a</text><text xml:space="preserve" font-family="AvenirNext-MediumItalic,Avenir Next" font-style="italic" font-size="32.0" fill="#5D514B" transform="matrix(1.00, 0.00, -0.00, -1.00, 513.1, 136.4)">t</text><text xml:space="preserve" font-family="AvenirNext-MediumItalic,Avenir Next" font-style="italic" font-size="32.0" fill="#5D514B" transform="matrix(1.00, 0.00, -0.00, -1.00, 523.4, 136.4)">i</text><text xml:space="preserve" font-family="AvenirNext-MediumItalic,Avenir Next" font-style="italic" font-size="32.0" fill="#5D514B" transform="matrix(1.00, 0.00, -0.00, -1.00, 531.7, 136.4)">n</text><text xml:space="preserve" font-family="AvenirNext-MediumItalic,Avenir Next" font-style="italic" font-size="32.0" fill="#5D514B" transform="matrix(1.00, 0.00, -0.00, -1.00, 550.3, 136.4)">g</text><text xml:space="preserve" font-family="AvenirNext-MediumItalic,Avenir Next" font-style="italic" font-size="32.0" fill="#5D514B" transform="matrix(1.00, 0.00, -0.00, -1.00, 570.5, 136.4)"> </text><text xml:space="preserve" font-family="AvenirNext-MediumItalic,Avenir Next" font-style="italic" font-size="32.0" fill="#5D514B" transform="matrix(1.00, 0.00, -0.00, -1.00, 578.5, 136.4)">b</text><text xml:space="preserve" font-family="AvenirNext-MediumItalic,Avenir Next" font-style="italic" font-size="32.0" fill="#5D514B" transform="matrix(1.00, 0.00, -0.00, -1.00, 598.7, 136.4)">r</text><text xml:space="preserve" font-family="AvenirNext-MediumItalic,Avenir Next" font-style="italic" font-size="32.0" fill="#5D514B" transform="matrix(1.00, 0.00, -0.00, -1.00, 609.3, 136.4)">e</text><text xml:space="preserve" font-family="AvenirNext-MediumItalic,Avenir Next" font-style="italic" font-size="32.0" fill="#5D514B" transform="matrix(1.00, 0.00, -0.00, -1.00, 627.2, 136.4)">a</text><text xml:space="preserve" font-family="AvenirNext-MediumItalic,Avenir Next" font-style="italic" font-size="32.0" fill="#5D514B" transform="matrix(1.00, 0.00, -0.00, -1.00, 644.4, 136.4)">k</text><text xml:space="preserve" font-family="AvenirNext-MediumItalic,Avenir Next" font-style="italic" font-size="32.0" fill="#5D514B" transform="matrix(1.00, 0.00, -0.00, -1.00, 660.5, 136.4)">f</text><text xml:space="preserve" font-family="AvenirNext-MediumItalic,Avenir Next" font-style="italic" font-size="32.0" fill="#5D514B" transform="matrix(1.00, 0.00, -0.00, -1.00, 670.4, 136.4)">a</text><text xml:space="preserve" font-family="AvenirNext-MediumItalic,Avenir Next" font-style="italic" font-size="32.0" fill="#5D514B" transform="matrix(1.00, 0.00, -0.00, -1.00, 687.6, 136.4)">s</text><text xml:space="preserve" font-family="AvenirNext-MediumItalic,Avenir Next" font-style="italic" font-size="32.0" fill="#5D514B" transform="matrix(1.00, 0.00, -0.00, -1.00, 701.8, 136.4)">t</text><text xml:space="preserve" font-family="AvenirNext-MediumItalic,Avenir Next" font-style="italic" font-size="32.0" fill="#5D514B" transform="matrix(1.00, 0.00, -0.00, -1.00, 712.2, 136.4)">/</text><text xml:space="preserve" font-family="AvenirNext-MediumItalic,Avenir Next" font-style="italic" font-size="32.0" fill="#5D514B" transform="matrix(1.00, 0.00, -0.00, -1.00, 724.3, 136.4)">l</text><text xml:space="preserve" font-family="AvenirNext-MediumItalic,Avenir Next" font-style="italic" font-size="32.0" fill="#5D514B" transform="matrix(1.00, 0.00, -0.00, -1.00, 732.6, 136.4)">u</text><text xml:space="preserve" font-family="AvenirNext-MediumItalic,Avenir Next" font-style="italic" font-size="32.0" fill="#5D514B" transform="matrix(1.00, 0.00, -0.00, -1.00, 751.2, 136.4)">n</text><text xml:space="preserve" font-family="AvenirNext-MediumItalic,Avenir Next" font-style="italic" font-size="32.0" fill="#5D514B" transform="matrix(1.00, 0.00, -0.00, -1.00, 769.8, 136.4)">c</text><text xml:space="preserve" font-family="AvenirNext-MediumItalic,Avenir Next" font-style="italic" font-size="32.0" fill="#5D514B" transform="matrix(1.00, 0.00, -0.00, -1.00, 785.7, 136.4)">h</text><text xml:space="preserve" font-family="AvenirNext-MediumItalic,Avenir Next" font-style="italic" font-size="32.0" fill="#5D514B" transform="matrix(1.00, 0.00, -0.00, -1.00, 804.3, 136.4)">.</text><text xml:space="preserve" font-family="AvenirNext-MediumItalic,Avenir Next" font-style="italic" font-size="32.0" fill="#5D514B" transform="matrix(1.00, 0.00, -0.00, -1.00, 811.6, 136.4)"> </text></g></svg>